<?xml version="1.0" encoding="utf-8"?>
<!-- Generator: Adobe Illustrator 19.1.1, SVG Export Plug-In . SVG Version: 6.00 Build 0)  -->
<svg version="1.1" id="Layer_1" xmlns="http://www.w3.org/2000/svg" xmlns:xlink="http://www.w3.org/1999/xlink" x="0px" y="0px"
	 width="12px" height="12px" viewBox="0 0 12 12" style="enable-background:new 0 0 12 12;" xml:space="preserve">

<g>
	<path class="st0" d="M2.7,12l0-2.6C1.2,9.3,0,8,0,6.5V2.9C0,1.3,1.3,0,2.9,0h6.2C10.7,0,12,1.3,12,2.9v3.6c0,1.6-1.3,2.9-2.9,2.9
		h-3L2.7,12z M2.9,1.1c-1,0-1.8,0.8-1.8,1.8v3.6c0,1,0.8,1.8,1.8,1.8c0.5,0,0.9,0.4,0.9,0.9l0,0.7l1.7-1.3C5.6,8.4,5.8,8.3,6,8.3
		h3.1c1,0,1.8-0.8,1.8-1.8V2.9c0-1-0.8-1.8-1.8-1.8H2.9z"/>
</g>
</svg>
