<?xml version="1.0" encoding="utf-8"?>
<!-- Generator: Adobe Illustrator 19.1.1, SVG Export Plug-In . SVG Version: 6.00 Build 0)  -->
<svg version="1.1" id="Layer_1" xmlns="http://www.w3.org/2000/svg" xmlns:xlink="http://www.w3.org/1999/xlink" x="0px" y="0px"
	 width="15px" height="12px" viewBox="0 0 15 12" style="enable-background:new 0 0 15 12;" xml:space="preserve">

<g transform="translate(0,-952.36218)">
	<g>
		<path class="st0" d="M4.1,952.7c-1,0-1.9,0.3-2.7,1c-1.5,1.4-1.5,3.6,0,5l5.7,5.3c0.2,0.2,0.5,0.2,0.7,0c1.9-1.8,3.8-3.5,5.7-5.3
			c1.5-1.4,1.5-3.6,0-5s-3.9-1.4-5.4,0l-0.7,0.6l-0.7-0.6C6.1,953,5.1,952.7,4.1,952.7z M6.1,954.4l1.1,1c0.2,0.2,0.5,0.2,0.7,0
			l1.1-1c1.1-1,2.8-1,3.9,0s1.1,2.6,0,3.6c-1.8,1.6-3.5,3.3-5.3,4.9L2.2,958c-1.1-1-1.1-2.6,0-3.6C3.3,953.4,5,953.4,6.1,954.4
			L6.1,954.4z"/>
		<path class="st0" d="M7.5,964.4c-0.2,0-0.4-0.1-0.6-0.2l-5.7-5.3c-0.8-0.7-1.2-1.7-1.2-2.7c0-1,0.4-2,1.2-2.7
			c0.8-0.7,1.8-1.1,2.9-1.1s2.1,0.4,2.9,1.1l0.5,0.4l0.4-0.4c1.6-1.5,4.2-1.5,5.8,0c0.8,0.7,1.2,1.7,1.2,2.7c0,1-0.4,2-1.2,2.7
			c-0.9,0.9-1.9,1.8-2.8,2.6c-0.9,0.9-1.9,1.7-2.8,2.6C7.9,964.3,7.7,964.4,7.5,964.4z M4.1,953c-0.9,0-1.8,0.3-2.4,0.9
			c-0.6,0.6-1,1.4-1,2.3c0,0.9,0.4,1.7,1,2.3l5.7,5.3c0.1,0.1,0.2,0.1,0.2,0c0.9-0.9,1.9-1.8,2.8-2.6c0.9-0.9,1.9-1.7,2.8-2.6
			c0.7-0.6,1-1.4,1-2.3c0-0.9-0.4-1.7-1-2.3c-1.3-1.2-3.5-1.2-4.9,0l-0.9,0.9l-0.9-0.9C5.9,953.3,5.1,953,4.1,953z M7.5,963.4
			l-5.6-5.2c-0.6-0.5-0.9-1.3-0.9-2c0-0.8,0.3-1.5,0.9-2c1.3-1.1,3.2-1.1,4.4,0l1.1,1c0.1,0.1,0.2,0.1,0.2,0l1-1
			c1.2-1.1,3.2-1.1,4.4,0c0.6,0.5,0.9,1.3,0.9,2s-0.3,1.5-0.9,2c-0.9,0.8-1.8,1.6-2.7,2.5c-0.9,0.8-1.8,1.6-2.7,2.5L7.5,963.4z
			 M4.2,953.9c-0.6,0-1.3,0.2-1.8,0.7c-0.4,0.4-0.7,1-0.7,1.6c0,0.6,0.3,1.2,0.7,1.6l5.1,4.7c0.8-0.7,1.6-1.5,2.4-2.2
			c0.9-0.8,1.8-1.6,2.7-2.5c0.5-0.4,0.7-1,0.7-1.6s-0.3-1.2-0.7-1.6c-1-0.9-2.5-0.9-3.4,0l-1.1,1c-0.3,0.3-0.9,0.3-1.2,0l-1.1-1
			C5.4,954.2,4.8,953.9,4.2,953.9z"/>
	</g>
</g>
</svg>
