<?xml version="1.0" encoding="utf-8"?>
<!-- Generator: Adobe Illustrator 19.1.1, SVG Export Plug-In . SVG Version: 6.00 Build 0)  -->
<svg version="1.1" id="Layer_1" xmlns="http://www.w3.org/2000/svg" xmlns:xlink="http://www.w3.org/1999/xlink" x="0px" y="0px"
	 width="16px" height="11px" viewBox="0 0 16 11" style="enable-background:new 0 0 16 11;" xml:space="preserve">
<g>
	<path class="st0" d="M15.6,0.7C15.6,0.7,15.6,0.7,15.6,0.7C15.6,0.7,15.6,0.6,15.6,0.7C15.6,0.6,15.6,0.6,15.6,0.7
		c0-0.1,0-0.1,0-0.1c0,0,0,0,0,0c0,0,0,0,0,0c0,0,0,0,0,0c0,0,0,0,0,0c0,0,0,0,0,0c0,0,0,0,0,0c0,0,0,0,0,0c0,0,0,0,0,0c0,0,0,0,0,0
		c0,0,0,0,0,0c0,0,0,0,0,0c0,0,0,0,0,0c0,0,0,0,0,0H0.7c0,0,0,0,0,0c0,0,0,0,0,0c0,0,0,0,0,0c0,0,0,0,0,0c0,0,0,0,0,0c0,0,0,0,0,0
		c0,0,0,0,0,0c0,0,0,0,0,0c0,0,0,0,0,0c0,0,0,0,0,0c0,0,0,0,0,0c0,0,0,0,0,0c0,0,0,0,0,0c0,0,0,0,0,0c0,0,0,0,0,0c0,0,0,0,0,0
		c0,0,0,0,0,0c0,0,0,0,0,0v9.6c0,0.2,0.1,0.3,0.3,0.3h14.7c0.2,0,0.3-0.1,0.3-0.3L15.6,0.7C15.6,0.7,15.6,0.7,15.6,0.7z M14.6,1
		L8,6.8L1.4,1H14.6z M0.9,10V1.4l6.9,6.1c0.1,0,0.1,0.1,0.2,0.1s0.1,0,0.2-0.1l6.9-6.1V10H0.9z"/>
	<path class="st0" d="M15.3,11H0.7C0.3,11,0,10.7,0,10.3l0-9.6c0,0,0,0,0-0.1c0,0,0,0,0-0.1c0,0,0,0,0-0.1c0,0,0,0,0-0.1
		c0,0,0,0,0-0.1c0,0,0,0,0-0.1l0,0c0,0,0,0,0,0c0,0,0,0,0,0c0,0,0,0,0,0c0,0,0,0,0,0c0,0,0,0,0.1,0c0,0,0,0,0.1,0c0,0,0,0,0.1,0
		c0,0,0,0,0.1,0c0,0,0,0,0.1,0l0,0h14.7l0,0c0,0,0,0,0,0c0,0,0,0,0.1,0c0,0,0,0,0.1,0c0,0,0,0,0.1,0c0,0,0,0,0.1,0c0,0,0,0,0.1,0
		c0,0,0,0,0,0c0,0,0,0,0,0l0.1,0.1c0,0,0,0,0,0c0,0,0,0,0,0.1c0,0,0,0,0,0.1l0,0c0,0,0,0,0,0.1c0,0,0,0.1,0,0.1c0,0,0,0,0,0l0,0.1
		v9.6C16,10.7,15.7,11,15.3,11z M1.3,9.6h13.4V2.2L8.4,7.8C8.2,8,7.8,8,7.6,7.8L1.3,2.2V9.6z M2.5,1.4L8,6.3l5.5-4.9H2.5z"/>
</g>
</svg>
