<?xml version="1.0" encoding="utf-8"?>
<!-- Generator: Adobe Illustrator 21.0.0, SVG Export Plug-In . SVG Version: 6.00 Build 0)  -->
<svg version="1.1" id="Layer_1" xmlns="http://www.w3.org/2000/svg" xmlns:xlink="http://www.w3.org/1999/xlink" x="0px" y="0px"
	 width="26px" height="21px" viewBox="0 0 26 21" style="enable-background:new 0 0 26 21;" xml:space="preserve">

<path class="st0" d="M24.4,5.7l-2,9.1v0.1H10c0,0,0,0,0-0.1c-0.2-1.2-0.5-2.2-0.7-3.4C8.8,9.6,8.4,7.6,8,5.7h0.2H24.4"/>
<g>
	<g>
		<path class="st1" d="M20.3,17.4c-1,0-1.8,0.8-1.8,1.8s0.8,1.8,1.8,1.8s1.8-0.8,1.8-1.8C22.1,18.2,21.3,17.4,20.3,17.4L20.3,17.4z
			 M11.4,17.4c-1,0-1.8,0.8-1.8,1.8s0.8,1.8,1.8,1.8s1.8-0.8,1.8-1.8C13.1,18.2,12.3,17.4,11.4,17.4L11.4,17.4z"/>
	</g>
	<g>
		<path class="st1" d="M23.9,6L22,14.5v0.1H10.4c0,0,0,0,0-0.1c-0.2-1.1-0.5-2.1-0.7-3.2C9.3,9.6,8.9,7.8,8.5,6h0.2H23.9 M6.8,0H1.3
			c-1.7,0-1.7,2.6,0,2.6l0,0h4.4c1,4.1,1.9,8.3,2.8,12.4c0.2,0.9,0.9,1.6,1.8,1.6h12c0.9,0,1.6-0.8,1.8-1.6l2-9.2
			c0.1-1-0.9-1.8-1.7-1.8H8.7C8.3,2.7,8,1.3,7.8,0.7C7.7,0.2,7.3,0,6.8,0L6.8,0z"/>
	</g>
</g>
</svg>
