<?xml version="1.0" encoding="utf-8"?>
<!-- Generator: Adobe Illustrator 19.1.1, SVG Export Plug-In . SVG Version: 6.00 Build 0)  -->
<svg version="1.1" id="Layer_1" xmlns="http://www.w3.org/2000/svg" xmlns:xlink="http://www.w3.org/1999/xlink" x="0px" y="0px"
	 width="44px" height="39px" viewBox="0 0 44 39" style="enable-background:new 0 0 44 39;" xml:space="preserve">
<style type="text/css">
	.st0{fill:#F16B98;}
	.st1{fill:#00acc1;}
	.st2{fill:#FFFFFF;}
	.st3{fill:none;}
	.st4{fill:#F06292;}
	.st5{fill:#FFA000;}
</style>
<path class="st1" d="M44,17.1l-3.6-8.9C40.3,8,40.1,7.9,40,7.8c0,0-0.1,0-0.1,0L22.2,0C22,0,21.8,0,21.6,0L3.9,7.8
	C3.6,7.9,3.5,8.2,3.5,8.5L0,17.1c-0.1,0.4,0.1,0.8,0.4,1l3.1,1.3v11.2c0,0.3,0.1,0.5,0.4,0.7l17.7,7.7C21.8,39,21.8,39,22,39
	c0.1,0,0.1,0,0.2,0c0,0,0,0,0.1,0c0,0,0,0,0.1,0c0.1,0,0.1,0,0.1-0.1L40,31.2c0.2-0.1,0.4-0.4,0.4-0.7V19.5l3.1-1.4
	C44,17.9,44.1,17.5,44,17.1z M22,1.6l15.8,6.9l-15.8,7l-15.8-7L22,1.6z M4.7,9.5L21,16.6L18,24.1L1.8,17L4.7,9.5z M5,30v-10
	l13.1,5.8c0.1,0.1,0.2,0.1,0.3,0.1c0.1,0,0.2-0.1,0.3-0.1c0.2-0.1,0.4-0.2,0.4-0.4l2-4.9v16.6L5,30z M38.9,30l-16.3,7.1V20.1
	l2.1,5.4c0.1,0.2,0.2,0.4,0.4,0.4c0.1,0.1,0.2,0.1,0.3,0.1s0.2-0.1,0.3-0.1l13.1-5.7V30z M25.9,24.1l-2.9-7.5l16.3-7.1l2.9,7.5
	L25.9,24.1z"/>
</svg>
