<?xml version="1.0" encoding="utf-8"?>
<!-- Generator: Adobe Illustrator 19.1.1, SVG Export Plug-In . SVG Version: 6.00 Build 0)  -->
<svg version="1.1" id="Layer_1" xmlns="http://www.w3.org/2000/svg" xmlns:xlink="http://www.w3.org/1999/xlink" x="0px" y="0px"
	 width="20px" height="22px" viewBox="0 0 20 22" style="enable-background:new 0 0 20 22;" xml:space="preserve">
<style type="text/css">
</style>
<path d="M14.5,4.1c0.6,0,1.1-0.5,1.1-1.1V1.1c0-0.6-0.5-1.1-1.1-1.1s-1.1,0.5-1.1,1.1v1.8C13.4,3.6,13.9,4.1,14.5,4.1z
	 M5.5,4.1c0.6,0,1.1-0.5,1.1-1.1V1.1C6.6,0.5,6.1,0,5.5,0S4.4,0.5,4.4,1.1v1.8C4.4,3.6,4.9,4.1,5.5,4.1z M19,1.8h-2.8v1.3
	c0,1-0.8,1.7-1.7,1.7s-1.7-0.8-1.7-1.7V1.8H7.2v1.3c0,1-0.8,1.7-1.7,1.7S3.8,4.1,3.8,3.1V1.8H1c-0.6,0-1,0.5-1,1v4.3h20V2.8
	C20,2.3,19.6,1.8,19,1.8z M0,12.1h4.4V7.9H0V12.1z M5.2,12.1h4.4V7.9H5.2V12.1z M10.4,12.1h4.4V7.9h-4.4V12.1z M15.6,12.1H20V7.9
	h-4.4V12.1z M0,17.2h4.4v-4.2H0V17.2z M5.2,17.2h4.4v-4.2H5.2V17.2z M10.4,17.2h4.4v-4.2h-4.4V17.2z M15.6,17.2H20v-4.2h-4.4V17.2z
	 M5.2,22h4.4v-4H5.2V22z M10.4,22h4.4v-4h-4.4V22z M0,21.4C0,21.7,0.3,22,0.6,22h3.8v-4H0V21.4z M15.6,22h3.8c0.3,0,0.6-0.3,0.6-0.6
	V18h-4.4V22z"/>
</svg>
