<?xml version="1.0" encoding="utf-8"?>
<!-- Generator: Adobe Illustrator 19.1.1, SVG Export Plug-In . SVG Version: 6.00 Build 0)  -->
<svg version="1.1" id="Layer_1" xmlns="http://www.w3.org/2000/svg" xmlns:xlink="http://www.w3.org/1999/xlink" x="0px" y="0px"
	 width="47px" height="30px" viewBox="0 0 47 30" style="enable-background:new 0 0 47 30;" xml:space="preserve">
<style type="text/css">
	.st0{fill:#F16B98;}
	.st1{fill:#00acc1;}
	.st2{fill:#FFFFFF;}
	.st3{fill:none;}
	.st4{fill:#F06292;}
	.st5{fill:#FFA000;}
</style>
<path class="st1" d="M43.9,20.3c-9.9,0-19.9,0-29.8,0c-1.1,0-1.1,1.8,0,1.8c9.9,0,19.9,0,29.8,0C45.1,22,45.1,20.3,43.9,20.3
	L43.9,20.3z"/>
<path class="st1" d="M46.2,15.2c-9.2,0-18.4,0-27.6,0c-1.1,0-1.1,1.7,0,1.7c9.2,0,18.4,0,27.6,0C47.3,16.9,47.3,15.2,46.2,15.2
	L46.2,15.2z"/>
<path class="st1" d="M40.7,10.3c-9.9,0-19.9,0-29.8,0c-1.1,0-1.1,1.8,0,1.8c9.9,0,19.9,0,29.8,0C41.9,12,41.9,10.3,40.7,10.3
	L40.7,10.3z"/>
<path class="st1" d="M13,30c-4.3,0-7.8-3.5-7.8-7.8c0-0.2,0-0.5,0.1-0.7c-3.1-1.1-5.3-4-5.3-7.4c0-4.3,3.5-7.8,7.8-7.8
	c0.2,0,0.5,0,0.7,0C9.1,2.8,12.3,0,16.2,0c3.7,0,6.9,2.6,7.7,6.2c0.1,0.5-0.2,1.1-0.8,1.2c-0.5,0.1-1.1-0.2-1.2-0.8
	C21.4,3.9,19,2,16.2,2c-3.2,0-5.7,2.5-5.7,5.7c0,0.3-0.2,0.6-0.4,0.8C9.8,8.7,9.4,8.7,9.1,8.6L8.9,8.5C8.5,8.5,8.2,8.4,7.8,8.4
	C4.6,8.4,2,11,2,14.2c0,2.8,2,5.1,4.7,5.7c0.3,0.1,0.6,0.2,0.7,0.5c0.1,0.3,0.2,0.6,0,0.9l-0.1,0.2c0,0.1,0,0.1,0,0.2
	c0,0.2-0.1,0.4-0.1,0.6c0,3.2,2.6,5.8,5.8,5.8c2.4,0,4.5-1.4,5.4-3.6c0.2-0.5,0.8-0.8,1.3-0.5c0.5,0.2,0.8,0.8,0.5,1.3
	C19,28.1,16.2,30,13,30z"/>
</svg>
