<?xml version="1.0" encoding="utf-8"?>
<svg version="1.1" id="Layer_1" xmlns="http://www.w3.org/2000/svg" xmlns:xlink="http://www.w3.org/1999/xlink" x="0px" y="0px"
	 width="10px" height="15px" viewBox="0 0 10 15" style="enable-background:new 0 0 10 15;" xml:space="preserve">
<style type="text/css">
	.st0{fill:#F16B98;}
</style>
<path class="st0" d="M10,15H0V4.8h10V15z M1.4,13.6h7.3V6.2H1.4V13.6z"/>
<path class="st0" d="M5,6.5c-0.2,0-0.3-0.1-0.5-0.2L2.1,4C1.6,3.6,1.3,2.9,1.3,2.3C1.3,1,2.3,0,3.5,0s2.2,1,2.2,2.3v3.6
	c0,0.3-0.2,0.5-0.4,0.6C5.2,6.5,5.1,6.5,5,6.5z M3.5,1.4C3,1.4,2.7,1.8,2.7,2.3c0,0.3,0.1,0.5,0.3,0.7c0,0,0,0,0.1,0l1.3,1.3v-2
	C4.3,1.8,3.9,1.4,3.5,1.4z"/>
<path class="st0" d="M5,6.5c-0.1,0-0.2,0-0.3-0.1C4.5,6.4,4.3,6.1,4.3,5.8V2.3C4.3,1,5.3,0,6.5,0s2.2,1,2.2,2.3
	c0,0.7-0.3,1.3-0.8,1.7L5.5,6.3C5.3,6.5,5.2,6.5,5,6.5z M6.5,1.4c-0.5,0-0.8,0.4-0.8,0.9v2L7,3c0,0,0,0,0.1,0
	c0.2-0.2,0.3-0.4,0.3-0.7C7.3,1.8,7,1.4,6.5,1.4z"/>
<path class="st0" d="M5,14.7c-0.4,0-0.7-0.3-0.7-0.7V5.5c0-0.4,0.3-0.7,0.7-0.7s0.7,0.3,0.7,0.7V14C5.7,14.3,5.4,14.7,5,14.7z"/>
<path class="st0" d="M8.5,10.6h-7c-0.4,0-0.7-0.3-0.7-0.7s0.3-0.7,0.7-0.7h7c0.4,0,0.7,0.3,0.7,0.7S8.9,10.6,8.5,10.6z"/>
</svg>
