<?xml version="1.0" encoding="utf-8"?>
<!-- Generator: Adobe Illustrator 19.1.1, SVG Export Plug-In . SVG Version: 6.00 Build 0)  -->
<svg version="1.1" id="Layer_1" xmlns="http://www.w3.org/2000/svg" xmlns:xlink="http://www.w3.org/1999/xlink" x="0px" y="0px"
	 width="35px" height="35px" viewBox="0 0 35 35" style="enable-background:new 0 0 35 35;" xml:space="preserve">
<style type="text/css">
	.st0{fill:#F16B98;}
	.st1{fill:#00acc1;}
	.st2{fill:#FFFFFF;}
	.st3{fill:none;}
	.st4{fill:#F06292;}
	.st5{fill:#FFA000;}
</style>
<g>
	<g transform="translate(-405.000000, -90.000000)">
		<path class="st1" d="M422.5,125c-9.6,0-17.5-7.9-17.5-17.5S412.9,90,422.5,90s17.5,7.9,17.5,17.5S432.1,125,422.5,125z
			 M422.5,91.4c-8.9,0-16.1,7.2-16.1,16.1s7.2,16.1,16.1,16.1s16.1-7.2,16.1-16.1S431.4,91.4,422.5,91.4z M421.1,120.8
			c-1.2,0-2.1-0.9-2.1-2.1c0-1.2,0.9-2.1,2.1-2.1c1.2,0,2.1,0.9,2.1,2.1C423.2,119.9,422.3,120.8,421.1,120.8z M421.1,118
			c-0.4,0-0.7,0.3-0.7,0.7s0.3,0.7,0.7,0.7c0.4,0,0.7-0.3,0.7-0.7S421.5,118,421.1,118z M429.5,118c-1.9,0-3.5-1.6-3.5-3.5
			s1.6-3.5,3.5-3.5s3.5,1.6,3.5,3.5S431.4,118,429.5,118z M429.5,112.4c-1.2,0-2.1,0.9-2.1,2.1s0.9,2.1,2.1,2.1s2.1-0.9,2.1-2.1
			S430.7,112.4,429.5,112.4z M416.9,115.2c-1.2,0-2.1-0.9-2.1-2.1c0-1.2,0.9-2.1,2.1-2.1c1.2,0,2.1,0.9,2.1,2.1
			C419,114.3,418.1,115.2,416.9,115.2z M416.9,112.4c-0.4,0-0.7,0.3-0.7,0.7s0.3,0.7,0.7,0.7c0.4,0,0.7-0.3,0.7-0.7
			S417.3,112.4,416.9,112.4z M422.5,109.6c-1.2,0-2.1-0.9-2.1-2.1s0.9-2.1,2.1-2.1s2.1,0.9,2.1,2.1S423.7,109.6,422.5,109.6z
			 M422.5,106.8c-0.4,0-0.7,0.3-0.7,0.7s0.3,0.7,0.7,0.7s0.7-0.3,0.7-0.7S422.9,106.8,422.5,106.8z M411.3,109.6
			c-1.2,0-2.1-0.9-2.1-2.1s0.9-2.1,2.1-2.1c1.2,0,2.1,0.9,2.1,2.1S412.5,109.6,411.3,109.6z M411.3,106.8c-0.4,0-0.7,0.3-0.7,0.7
			s0.3,0.7,0.7,0.7c0.4,0,0.7-0.3,0.7-0.7S411.7,106.8,411.3,106.8z M432.3,108.2c-1.2,0-2.1-0.9-2.1-2.1c0-1.2,0.9-2.1,2.1-2.1
			c1.2,0,2.1,0.9,2.1,2.1C434.4,107.3,433.5,108.2,432.3,108.2z M432.3,105.4c-0.4,0-0.7,0.3-0.7,0.7s0.3,0.7,0.7,0.7
			c0.4,0,0.7-0.3,0.7-0.7S432.7,105.4,432.3,105.4z M416.9,105.4c-1.9,0-3.5-1.6-3.5-3.5s1.6-3.5,3.5-3.5c1.9,0,3.5,1.6,3.5,3.5
			S418.8,105.4,416.9,105.4z M416.9,101.2c-0.4,0-0.7,0.3-0.7,0.7s0.3,0.7,0.7,0.7c0.4,0,0.7-0.3,0.7-0.7S417.3,101.2,416.9,101.2z
			 M426.7,104c-1.2,0-2.1-0.9-2.1-2.1c0-1.2,0.9-2.1,2.1-2.1c1.2,0,2.1,0.9,2.1,2.1C428.8,103.1,427.9,104,426.7,104z M426.7,101.2
			c-0.4,0-0.7,0.3-0.7,0.7s0.3,0.7,0.7,0.7c0.4,0,0.7-0.3,0.7-0.7S427.1,101.2,426.7,101.2z M423.9,98.4c-1.2,0-2.1-0.9-2.1-2.1
			c0-1.2,0.9-2.1,2.1-2.1c1.2,0,2.1,0.9,2.1,2.1C426,97.5,425.1,98.4,423.9,98.4z M423.9,95.6c-0.4,0-0.7,0.3-0.7,0.7
			s0.3,0.7,0.7,0.7c0.4,0,0.7-0.3,0.7-0.7S424.3,95.6,423.9,95.6z"/>
	</g>
</g>
</svg>
