<?xml version="1.0" encoding="utf-8"?>
<!-- Generator: Adobe Illustrator 19.1.1, SVG Export Plug-In . SVG Version: 6.00 Build 0)  -->
<svg version="1.1" id="Layer_1" xmlns="http://www.w3.org/2000/svg" xmlns:xlink="http://www.w3.org/1999/xlink" x="0px" y="0px"
	 width="10px" height="39px" viewBox="0 0 10 39" style="enable-background:new 0 0 10 39;" xml:space="preserve">
<style type="text/css">
	.st0{fill:#F16B98;}
	.st1{fill:#00acc1;}
	.st2{fill:#FFFFFF;}
	.st3{fill:none;}
	.st4{fill:#F06292;}
	.st5{fill:#FFA000;}
</style>
<g transform="translate(0,-952.36218)">
	<path class="st1" d="M5,991.4c-2.8,0-5-2.1-5-4.8c0-2.6,2.2-4.8,5-4.8s5,2.1,5,4.8C10,989.2,7.8,991.4,5,991.4z M5,982.7
		c-2.3,0-4.1,1.7-4.1,3.9c0,2.2,1.8,3.9,4.1,3.9s4.1-1.7,4.1-3.9C9.1,984.4,7.3,982.7,5,982.7z M5,981c-1.8,0-3.2-1.4-3.2-3
		l-0.9-21.6c0-2.2,1.8-3.9,4.1-3.9s4.1,1.7,4.1,3.9l-0.9,21.7C8.2,979.6,6.8,981,5,981z M5,953.2c-1.8,0-3.2,1.4-3.2,3l0.9,21.6
		c0,1.2,1,2.2,2.3,2.2s2.3-1,2.3-2.2l0.9-21.7C8.2,954.6,6.8,953.2,5,953.2z"/>
</g>
</svg>
