<?xml version="1.0" encoding="utf-8"?>
<!-- Generator: Adobe Illustrator 19.1.1, SVG Export Plug-In . SVG Version: 6.00 Build 0)  -->
<svg version="1.1" id="Layer_1" xmlns="http://www.w3.org/2000/svg" xmlns:xlink="http://www.w3.org/1999/xlink" x="0px" y="0px"
	 width="27px" height="34px" viewBox="0 0 27 34" style="enable-background:new 0 0 27 34;" xml:space="preserve">
<style type="text/css">
	.st0{fill:#F16B98;}
	.st1{fill:#00acc1;}
	.st2{fill:#FFFFFF;}
	.st3{fill:none;}
	.st4{fill:#F06292;}
	.st5{fill:#FFA000;}
</style>
<path class="st1" d="M14.8,23.5v4.2h-2.6v-4.2c-0.8-0.4-1.3-1.2-1.3-2.2c0-1.4,1.2-2.5,2.6-2.5c1.4,0,2.6,1.1,2.6,2.5
	C16.1,22.2,15.6,23,14.8,23.5z"/>
<path class="st1" d="M23.9,12.5h-1V9c0-5-4.2-9.1-9.3-9.1S4.2,3.9,4.2,9v3.6h-1c-1.7,0-3.1,1.4-3.1,3v15.2c0,1.7,1.4,3,3.1,3h20.8
	c1.7,0,3.1-1.4,3.1-3V15.6C27,13.9,25.6,12.5,23.9,12.5z M6.8,12.5H5.2V9c0-4.5,3.7-8.1,8.3-8.1s8.3,3.6,8.3,8.1v3.6h-1.6H6.8z
	 M26,30.8c0,1.1-0.9,2-2.1,2H3.1c-1.1,0-2.1-0.9-2.1-2V15.6c0-1.1,0.9-2,2.1-2h20.8c1.1,0,2.1,0.9,2.1,2V30.8z"/>
</svg>
