<?xml version="1.0" encoding="utf-8"?>
<!-- Generator: Adobe Illustrator 19.1.1, SVG Export Plug-In . SVG Version: 6.00 Build 0)  -->
<svg version="1.1" id="Layer_1" xmlns="http://www.w3.org/2000/svg" xmlns:xlink="http://www.w3.org/1999/xlink" x="0px" y="0px"
	 width="172px" height="94px" viewBox="0 0 172 94" style="enable-background:new 0 0 172 94;" xml:space="preserve">
<style type="text/css">
	.st0{fill:#F16B98;}
	.st1{fill:#7B491D;}
	.st2{fill:#FFFFFF;}
	.st3{fill:none;}
	.st4{fill:#F06292;}
	.st5{fill:#FFA000;}
	.st6{fill:#A6A6A6;}
</style>
<g>
	<g>
		<path class="st1" d="M25.5,37.4h10.8v4.8h-0.2c-0.2-0.6-0.5-1.3-0.9-2c-0.3-0.7-0.7-1.3-1.1-1.8c-0.4-0.5-0.7-0.8-1-0.8l-0.5,0
			v8.8l0,0.7c0,0.3,0.1,0.5,0.2,0.7c0.1,0.1,0.2,0.2,0.4,0.2c0.2,0,0.4,0,0.5,0.1c0.2,0,0.3,0,0.4,0v0.2h-6.7v-0.2l0.9,0
			c0.3,0,0.5-0.1,0.6-0.2c0.1-0.1,0.2-0.3,0.2-0.7l0-0.7v-8.8l-0.5,0c-0.3,0-0.6,0.2-1,0.7c-0.4,0.5-0.7,1.1-1.1,1.8
			c-0.4,0.7-0.7,1.4-0.9,2h-0.2V37.4z"/>
		<path class="st1" d="M38.6,44.9l-0.4,1.6c-0.1,0.4-0.1,0.6-0.1,0.9c0,0.2,0.1,0.4,0.2,0.5c0.1,0.1,0.2,0.2,0.4,0.2
			c0.2,0,0.3,0.1,0.5,0.1c0.2,0,0.3,0,0.4,0v0.2h-3.9v-0.2l0.8-0.1c0.3,0,0.5-0.1,0.7-0.2s0.3-0.3,0.3-0.5c0.1-0.2,0.2-0.4,0.3-0.7
			s0.2-0.5,0.2-0.7l2.6-8.6h1.5L45,46l0.4,1.2c0.1,0.3,0.3,0.5,0.4,0.7c0.1,0.1,0.3,0.2,0.6,0.3l0.6,0.1v0.2h-6.5v-0.2
			c0.1,0,0.2,0,0.3,0c0.1,0,0.2,0,0.5-0.1c0.2,0,0.4-0.1,0.5-0.2c0.1-0.1,0.1-0.2,0.1-0.4c0-0.2-0.1-0.5-0.2-1l-0.5-1.6H38.6z
			 M41,44.6l-1.2-3.7l-1.2,3.7H41z"/>
		<path class="st1" d="M53.1,48c0.5,0,1.1-0.3,1.6-0.8c0.5-0.6,1-1.2,1.4-1.9s0.8-1.5,1.1-2.3h0.2v5.4H46.8v-0.2c0.1,0,0.2,0,0.3,0
			s0.3,0,0.6-0.1c0.3,0,0.5-0.1,0.6-0.2c0.1-0.1,0.2-0.4,0.2-0.7l0-0.7v-7.2l0-0.7c0-0.3-0.1-0.5-0.2-0.7c-0.1-0.1-0.2-0.2-0.4-0.2
			c-0.2,0-0.4,0-0.5-0.1c-0.1,0-0.3,0-0.4,0v-0.2h6.6v0.2l-0.9,0c-0.3,0-0.5,0.1-0.6,0.2C52,38,52,38.2,51.9,38.6l0,0.7v8.8L53.1,48
			z"/>
		<path class="st1" d="M63.1,48.1c0.4,0,0.8,0,1.2,0c0.4,0,0.8,0,1.3-0.1c0.4-0.1,1-0.6,1.6-1.5c0.7-0.9,1.1-1.9,1.4-2.9h0.2v4.8
			H58.1v-0.2c0.1,0,0.3,0,0.4,0c0.2,0,0.3,0,0.5-0.1c0.2,0,0.3-0.1,0.4-0.2s0.2-0.3,0.2-0.7l0-0.7v-7.2l0-0.7c0-0.3-0.1-0.5-0.2-0.7
			c-0.1-0.1-0.3-0.2-0.5-0.2c-0.2,0-0.4,0-0.5-0.1c-0.2,0-0.3,0-0.4,0v-0.2h10.5v4.5h-0.2c-0.5-1.1-1-2.1-1.7-2.8
			c-0.7-0.8-1.2-1.2-1.7-1.2s-0.8-0.1-1.1-0.1s-0.5,0-0.6,0h-0.1l0,5l0.6,0c0.5-0.1,0.9-0.3,1.2-0.8c0.3-0.5,0.4-1.1,0.4-1.7h0.3
			v5.5h-0.3c0-0.7-0.1-1.3-0.4-1.8c-0.3-0.5-0.7-0.8-1.2-0.8l-0.6,0V48.1z"/>
		<path class="st1" d="M75.6,48.6c-1.6,0-2.8-0.5-3.8-1.6c-1-1.1-1.5-2.4-1.5-4.1c0-1.7,0.5-3,1.5-4.1c1-1.1,2.3-1.6,3.8-1.6
			c0.7,0,1.3,0.1,1.7,0.4l1.4,0.9c0.3,0,0.5-0.1,0.5-0.3s0.2-0.5,0.2-0.9h0.3v4.8h-0.2c-0.4-1.2-0.7-2.1-0.9-2.5
			c-0.2-0.4-0.4-0.9-0.8-1.3s-0.9-0.6-1.5-0.6c-0.8,0-1.4,0.5-1.8,1.5S74,41.3,74,42.7c0,1.4,0.2,2.6,0.7,3.7c0.5,1,1.1,1.6,2,1.6
			c0.8,0,1.5-0.3,2-1c0.5-0.7,0.8-1.5,1-2.6l0.2,0c-0.1,1.2-0.5,2.2-1.2,3C78,48.2,77,48.6,75.6,48.6z"/>
		<path class="st1" d="M92,42.9c0,1.6-0.5,3-1.6,4c-1.1,1.1-2.4,1.6-3.9,1.6c-1.6,0-2.9-0.5-3.9-1.6S81,44.5,81,42.9
			c0-1.7,0.5-3.1,1.6-4.1c1.1-1,2.4-1.6,3.9-1.6s2.8,0.5,3.9,1.6C91.5,39.9,92,41.2,92,42.9z M87.9,38.8c-0.3-0.8-0.7-1.3-1.4-1.3
			c-0.3,0-0.6,0.1-0.9,0.4c-0.2,0.2-0.4,0.6-0.6,1s-0.2,1-0.3,1.8c-0.1,0.7-0.1,1.5-0.1,2.2c0,1,0,1.9,0.1,2.5
			c0.1,0.7,0.2,1.3,0.4,1.9c0.2,0.6,0.6,0.9,1.3,0.9c0.3,0,0.6-0.1,0.9-0.4c0.2-0.2,0.4-0.6,0.6-1c0.1-0.5,0.2-1,0.3-1.8
			c0.1-0.7,0.1-1.5,0.1-2.2c0-0.9,0-1.7-0.1-2.3C88.2,39.9,88.1,39.3,87.9,38.8z"/>
		<path class="st1" d="M104.4,42.9c0,1.6-0.5,3-1.6,4c-1.1,1.1-2.4,1.6-3.9,1.6c-1.6,0-2.9-0.5-3.9-1.6s-1.6-2.4-1.6-4.1
			c0-1.7,0.5-3.1,1.6-4.1c1.1-1,2.4-1.6,3.9-1.6s2.8,0.5,3.9,1.6C103.8,39.9,104.4,41.2,104.4,42.9z M100.2,38.8
			c-0.3-0.8-0.7-1.3-1.4-1.3c-0.3,0-0.6,0.1-0.9,0.4c-0.2,0.2-0.4,0.6-0.6,1s-0.2,1-0.3,1.8c-0.1,0.7-0.1,1.5-0.1,2.2
			c0,1,0,1.9,0.1,2.5c0.1,0.7,0.2,1.3,0.4,1.9c0.2,0.6,0.6,0.9,1.3,0.9c0.3,0,0.6-0.1,0.9-0.4c0.2-0.2,0.4-0.6,0.6-1
			c0.1-0.5,0.2-1,0.3-1.8c0.1-0.7,0.1-1.5,0.1-2.2c0-0.9,0-1.7-0.1-2.3C100.5,39.9,100.4,39.3,100.2,38.8z"/>
		<path class="st1" d="M110.7,43.3l-0.4,0.5v2.8l0,0.7c0,0.3,0.1,0.6,0.2,0.7c0.1,0.1,0.3,0.2,0.6,0.2l0.5,0v0.2h-6.1v-0.2l0.7-0.1
			c0.3,0,0.4-0.1,0.6-0.3s0.2-0.4,0.2-0.7l0-0.7v-7.2l0-0.7c0-0.3-0.1-0.5-0.2-0.7c-0.1-0.1-0.3-0.2-0.6-0.2l-0.7-0.1v-0.2h6.1v0.2
			l-0.5,0c-0.3,0-0.5,0.1-0.6,0.2c-0.1,0.1-0.2,0.3-0.2,0.7l0,0.7v4.1c0.3-0.3,0.6-0.8,1.1-1.4c0.5-0.6,1-1.2,1.5-1.9
			c0.5-0.6,0.8-1.1,1-1.3c0.2-0.3,0.3-0.5,0.3-0.6c0-0.1,0-0.2-0.1-0.3c-0.1-0.1-0.2-0.1-0.4-0.1l-0.6,0v-0.2h3.5v0.2
			c-0.1,0-0.2,0-0.4,0c-0.1,0-0.3,0-0.5,0.1c-0.2,0-0.4,0.1-0.6,0.2c-0.2,0.1-0.4,0.3-0.7,0.7l-1.4,1.7l3.7,6.4
			c0.3,0.6,0.6,0.9,0.7,1.1s0.3,0.2,0.5,0.3s0.3,0.1,0.4,0.1c0.1,0,0.2,0,0.3,0v0.2h-6.6v-0.2l0.6,0c0.2,0,0.3-0.1,0.4-0.1
			s0.1-0.1,0.1-0.3c0-0.1,0-0.2-0.1-0.3c0-0.1-0.1-0.3-0.3-0.6c-0.2-0.3-0.3-0.6-0.6-0.9c-0.2-0.3-0.5-0.8-0.8-1.4
			S110.9,43.5,110.7,43.3z"/>
		<path class="st1" d="M124.6,48.4h-6.4v-0.2c0.1,0,0.2,0,0.3,0c0.1,0,0.3,0,0.5-0.1c0.3,0,0.4-0.1,0.5-0.2s0.2-0.4,0.2-0.7l0-0.7
			v-7.2l0-0.7c0-0.3-0.1-0.5-0.2-0.7c-0.1-0.1-0.3-0.2-0.6-0.2l-0.7-0.1v-0.2h6.4v0.2l-0.7,0c-0.3,0-0.5,0.1-0.6,0.2
			c-0.1,0.1-0.2,0.3-0.2,0.7l0,0.7v7.2l0,0.7c0,0.3,0.1,0.6,0.2,0.7c0.1,0.1,0.3,0.2,0.6,0.2l0.7,0V48.4z"/>
		<path class="st1" d="M130.4,48.1c0.4,0,0.8,0,1.2,0c0.4,0,0.8,0,1.3-0.1c0.4-0.1,1-0.6,1.6-1.5c0.7-0.9,1.1-1.9,1.4-2.9h0.2v4.8
			h-10.7v-0.2c0.1,0,0.3,0,0.4,0c0.2,0,0.3,0,0.5-0.1c0.2,0,0.3-0.1,0.4-0.2s0.2-0.3,0.2-0.7l0-0.7v-7.2l0-0.7
			c0-0.3-0.1-0.5-0.2-0.7c-0.1-0.1-0.3-0.2-0.5-0.2c-0.2,0-0.4,0-0.5-0.1c-0.2,0-0.3,0-0.4,0v-0.2h10.5v4.5h-0.2
			c-0.5-1.1-1-2.1-1.7-2.8c-0.7-0.8-1.2-1.2-1.7-1.2s-0.8-0.1-1.1-0.1s-0.5,0-0.6,0h-0.1l0,5l0.6,0c0.5-0.1,0.9-0.3,1.2-0.8
			c0.3-0.5,0.4-1.1,0.4-1.7h0.3v5.5h-0.3c0-0.7-0.1-1.3-0.4-1.8c-0.3-0.5-0.7-0.8-1.2-0.8l-0.6,0V48.1z"/>
		<path class="st1" d="M146,45.2c0,1-0.4,1.8-1.1,2.5c-0.8,0.6-1.6,1-2.5,1c-0.8,0-1.6-0.3-2.3-0.8c-0.8-0.5-1.2-0.8-1.3-0.8
			c-0.3,0-0.5,0.1-0.6,0.4c-0.1,0.3-0.1,0.7-0.2,1.3h-0.2v-5.4h0.2c0.1,0.2,0.1,0.6,0.3,1c0.1,0.5,0.4,1.1,0.7,1.7
			c0.4,0.7,0.8,1.2,1.4,1.7c0.6,0.4,1.3,0.7,2,0.7c0.4,0,0.8-0.1,1.1-0.4s0.4-0.6,0.4-0.9c0-0.4-0.1-0.8-0.3-1
			c-0.2-0.3-0.6-0.5-1.1-0.7c-0.5-0.2-1.1-0.5-1.7-0.8c-0.6-0.3-1.3-0.6-1.9-1.1c-0.7-0.5-1-1.3-1-2.6c0-1,0.4-1.8,1.1-2.5
			c0.7-0.7,1.5-1,2.5-1c0.5,0,1,0.1,1.5,0.4l1.4,0.9c0.3,0,0.4-0.1,0.5-0.4c0.1-0.2,0.1-0.6,0.1-0.9h0.3v4H145
			c0-0.2-0.1-0.5-0.3-0.9c-0.1-0.4-0.4-0.9-0.8-1.4c-0.4-0.5-0.8-0.9-1.2-1.1c-0.4-0.2-0.9-0.3-1.4-0.3c-0.4,0-0.7,0.1-1,0.4
			c-0.3,0.2-0.5,0.5-0.5,0.9c0,0.4,0.1,0.7,0.4,1c0.2,0.3,0.5,0.5,0.8,0.6c0.3,0.2,0.7,0.3,1.3,0.6c0.6,0.2,1.1,0.5,1.7,0.8
			c0.6,0.3,1.1,0.8,1.5,1.3C145.8,43.6,146,44.3,146,45.2z"/>
	</g>
</g>
<g>
	<g>
		<path class="st1" d="M47.1,58.9h1v2.5h1.8v-2.5h1v6h-1v-2.7h-1.8v2.7h-1V58.9z"/>
		<path class="st1" d="M52.8,61.7L52,61.6c0.1-0.4,0.2-0.7,0.5-0.9s0.7-0.3,1.1-0.3c0.4,0,0.7,0.1,1,0.2s0.4,0.4,0.4,0.6
			s0.1,0.6,0.1,1v1.5c0,0.6,0,1,0.1,1.2h-0.9c0-0.2-0.1-0.4-0.1-0.7C54,64.8,53.6,65,53,65c-0.4,0-0.7-0.1-0.9-0.3
			c-0.2-0.2-0.3-0.5-0.3-0.9c0-0.5,0.2-0.9,0.5-1.2c0.3-0.3,0.9-0.4,1.7-0.4c0,0,0.1,0,0.2,0V62c0-0.3,0-0.6-0.1-0.7
			C54,61.1,53.8,61,53.6,61C53.2,61,52.9,61.3,52.8,61.7z M54.2,62.8c-0.1,0-0.2,0-0.3,0c-0.8,0-1.2,0.3-1.2,0.9
			c0,0.5,0.2,0.7,0.6,0.7c0.2,0,0.4-0.1,0.6-0.4s0.3-0.6,0.3-1V62.8z"/>
		<path class="st1" d="M56.1,60.5H57v0.7c0.2-0.5,0.6-0.8,1.1-0.8c0.3,0,0.5,0.1,0.7,0.2c0.2,0.1,0.3,0.3,0.3,0.5
			c0,0.2,0.1,0.5,0.1,1v2.9h-0.9v-2.8c0-0.4,0-0.7-0.1-0.8c-0.1-0.1-0.2-0.2-0.4-0.2c-0.2,0-0.4,0.1-0.5,0.3
			c-0.1,0.2-0.2,0.5-0.2,1.1v2.5h-0.9V60.5z"/>
		<path class="st1" d="M62.6,58.9h0.9v6h-0.8v-0.7c-0.2,0.5-0.6,0.8-1.1,0.8c-0.5,0-0.9-0.2-1.1-0.6c-0.2-0.4-0.4-1-0.4-1.7
			c0-0.7,0.1-1.3,0.4-1.7s0.6-0.6,1.1-0.6c0.5,0,0.8,0.2,1,0.6V58.9z M62.6,62.3c0-0.5-0.1-0.8-0.3-1c-0.2-0.2-0.3-0.3-0.5-0.3
			c-0.5,0-0.8,0.5-0.8,1.6c0,1.1,0.3,1.7,0.8,1.7c0.2,0,0.4-0.1,0.5-0.3s0.2-0.5,0.2-1V62.3z"/>
		<path class="st1" d="M68.5,58.9h0.9v6h-0.8v-0.7C68.4,64.8,68,65,67.5,65c-0.5,0-0.9-0.2-1.1-0.6c-0.2-0.4-0.4-1-0.4-1.7
			c0-0.7,0.1-1.3,0.4-1.7s0.6-0.6,1.1-0.6c0.5,0,0.8,0.2,1,0.6V58.9z M68.5,62.3c0-0.5-0.1-0.8-0.3-1c-0.2-0.2-0.3-0.3-0.5-0.3
			c-0.5,0-0.8,0.5-0.8,1.6c0,1.1,0.3,1.7,0.8,1.7c0.2,0,0.4-0.1,0.5-0.3s0.2-0.5,0.2-1V62.3z"/>
		<path class="st1" d="M73.7,62.8h-2.5c0,0.6,0.1,1,0.2,1.2c0.2,0.2,0.4,0.3,0.6,0.3c0.4,0,0.7-0.3,0.8-0.8l0.8,0.1
			c-0.2,0.9-0.8,1.4-1.6,1.4c-0.5,0-1-0.2-1.3-0.6c-0.3-0.4-0.5-1-0.5-1.7c0-0.8,0.2-1.4,0.5-1.8c0.3-0.4,0.8-0.6,1.3-0.6
			c0.4,0,0.7,0.1,1,0.3c0.3,0.2,0.4,0.5,0.5,0.8C73.7,61.8,73.7,62.3,73.7,62.8z M72.8,62.2c0-0.8-0.3-1.2-0.8-1.2
			c-0.5,0-0.7,0.4-0.8,1.2H72.8z"/>
		<path class="st1" d="M77.6,62l-0.9,0.1c0-0.4-0.1-0.7-0.2-0.8c-0.1-0.1-0.3-0.2-0.4-0.2c-0.3,0-0.5,0.1-0.6,0.4
			c-0.1,0.3-0.2,0.7-0.2,1.3c0,1,0.3,1.5,0.8,1.5c0.4,0,0.6-0.3,0.7-1l0.9,0.1C77.5,64.5,76.9,65,76,65c-0.6,0-1-0.2-1.3-0.6
			c-0.3-0.4-0.4-1-0.4-1.7c0-0.8,0.1-1.4,0.4-1.8c0.3-0.4,0.7-0.6,1.3-0.6C76.9,60.4,77.5,60.9,77.6,62z"/>
		<path class="st1" d="M81.5,62.7c0,1.6-0.6,2.4-1.8,2.4c-0.5,0-1-0.2-1.3-0.6c-0.3-0.4-0.5-1-0.5-1.8c0-1.6,0.6-2.3,1.8-2.3
			c0.5,0,1,0.2,1.3,0.6S81.5,61.9,81.5,62.7z M80.5,62.7c0-0.6-0.1-1.1-0.2-1.3s-0.3-0.4-0.6-0.4c-0.5,0-0.8,0.5-0.8,1.6
			c0,0.6,0.1,1,0.2,1.2c0.1,0.3,0.3,0.4,0.6,0.4c0.3,0,0.5-0.1,0.6-0.4S80.5,63.2,80.5,62.7z"/>
		<path class="st1" d="M82.3,60.5h0.8v1c0.2-0.7,0.6-1.1,1.1-1.1c0,0,0.1,0,0.2,0v1c-0.1,0-0.1,0-0.2,0c-0.7,0-1,0.4-1,1.3v2.3h-0.9
			V60.5z"/>
		<path class="st1" d="M85.7,61.7l-0.9-0.1c0.1-0.4,0.2-0.7,0.5-0.9s0.7-0.3,1.1-0.3c0.4,0,0.7,0.1,1,0.2s0.4,0.4,0.4,0.6
			s0.1,0.6,0.1,1v1.5c0,0.6,0,1,0.1,1.2h-0.9c0-0.2-0.1-0.4-0.1-0.7c-0.3,0.6-0.7,0.9-1.2,0.9c-0.4,0-0.7-0.1-0.9-0.3
			c-0.2-0.2-0.3-0.5-0.3-0.9c0-0.5,0.2-0.9,0.5-1.2c0.3-0.3,0.9-0.4,1.7-0.4c0,0,0.1,0,0.2,0V62c0-0.3,0-0.6-0.1-0.7
			c-0.1-0.2-0.3-0.2-0.5-0.2C86,61,85.8,61.3,85.7,61.7z M87.1,62.8c-0.1,0-0.2,0-0.3,0c-0.8,0-1.2,0.3-1.2,0.9
			c0,0.5,0.2,0.7,0.6,0.7c0.2,0,0.4-0.1,0.6-0.4s0.3-0.6,0.3-1V62.8z"/>
		<path class="st1" d="M89.2,59.3l0.8-0.1v1.2h0.8v0.7H90v2c0,0.3,0,0.6,0,0.7s0.1,0.2,0.2,0.3c0.1,0.1,0.2,0.1,0.4,0.1
			c0.1,0,0.2,0,0.4,0V65C90.8,65,90.5,65,90.3,65c-0.3,0-0.6-0.1-0.8-0.2s-0.3-0.3-0.3-0.5s-0.1-0.6-0.1-1.1v-2h-0.6v-0.7h0.6
			L89.2,59.3z"/>
		<path class="st1" d="M94.7,62.8h-2.5c0,0.6,0.1,1,0.2,1.2c0.2,0.2,0.4,0.3,0.6,0.3c0.4,0,0.7-0.3,0.8-0.8l0.8,0.1
			c-0.2,0.9-0.8,1.4-1.6,1.4c-0.5,0-1-0.2-1.3-0.6c-0.3-0.4-0.5-1-0.5-1.7c0-0.8,0.2-1.4,0.5-1.8c0.3-0.4,0.8-0.6,1.3-0.6
			c0.4,0,0.7,0.1,1,0.3c0.3,0.2,0.4,0.5,0.5,0.8C94.7,61.8,94.7,62.3,94.7,62.8z M93.8,62.2c0-0.8-0.3-1.2-0.8-1.2
			c-0.5,0-0.7,0.4-0.8,1.2H93.8z"/>
		<path class="st1" d="M97.8,58.9h0.9v6h-0.8v-0.7c-0.2,0.5-0.6,0.8-1.1,0.8c-0.5,0-0.9-0.2-1.1-0.6c-0.2-0.4-0.4-1-0.4-1.7
			c0-0.7,0.1-1.3,0.4-1.7s0.6-0.6,1.1-0.6c0.5,0,0.8,0.2,1,0.6V58.9z M97.8,62.3c0-0.5-0.1-0.8-0.3-1c-0.2-0.2-0.3-0.3-0.5-0.3
			c-0.5,0-0.8,0.5-0.8,1.6c0,1.1,0.3,1.7,0.8,1.7c0.2,0,0.4-0.1,0.5-0.3s0.2-0.5,0.2-1V62.3z"/>
		<path class="st1" d="M104.5,62l-0.9,0.1c0-0.4-0.1-0.7-0.2-0.8c-0.1-0.1-0.3-0.2-0.4-0.2c-0.3,0-0.5,0.1-0.6,0.4
			c-0.1,0.3-0.2,0.7-0.2,1.3c0,1,0.3,1.5,0.8,1.5c0.4,0,0.6-0.3,0.7-1l0.9,0.1c-0.1,1.1-0.7,1.7-1.6,1.7c-0.6,0-1-0.2-1.3-0.6
			c-0.3-0.4-0.4-1-0.4-1.7c0-0.8,0.1-1.4,0.4-1.8c0.3-0.4,0.7-0.6,1.3-0.6C103.9,60.4,104.4,60.9,104.5,62z"/>
		<path class="st1" d="M108.4,62.7c0,1.6-0.6,2.4-1.8,2.4c-0.5,0-1-0.2-1.3-0.6c-0.3-0.4-0.5-1-0.5-1.8c0-1.6,0.6-2.3,1.8-2.3
			c0.5,0,1,0.2,1.3,0.6S108.4,61.9,108.4,62.7z M107.4,62.7c0-0.6-0.1-1.1-0.2-1.3s-0.3-0.4-0.6-0.4c-0.5,0-0.8,0.5-0.8,1.6
			c0,0.6,0.1,1,0.2,1.2c0.1,0.3,0.3,0.4,0.6,0.4c0.3,0,0.5-0.1,0.6-0.4S107.4,63.2,107.4,62.7z"/>
		<path class="st1" d="M112.5,62.7c0,1.6-0.6,2.4-1.8,2.4c-0.5,0-1-0.2-1.3-0.6c-0.3-0.4-0.5-1-0.5-1.8c0-1.6,0.6-2.3,1.8-2.3
			c0.5,0,1,0.2,1.3,0.6S112.5,61.9,112.5,62.7z M111.6,62.7c0-0.6-0.1-1.1-0.2-1.3s-0.3-0.4-0.6-0.4c-0.5,0-0.8,0.5-0.8,1.6
			c0,0.6,0.1,1,0.2,1.2c0.1,0.3,0.3,0.4,0.6,0.4c0.3,0,0.5-0.1,0.6-0.4S111.6,63.2,111.6,62.7z"/>
		<path class="st1" d="M113.4,58.9h0.9v3.6l1.4-2h0.9l-1.1,1.5l1.3,2.9h-1l-0.9-2.2l-0.6,0.8v1.4h-0.9V58.9z"/>
		<path class="st1" d="M118.2,59.9h-1v-1h1V59.9z M117.2,60.5h0.9v4.5h-0.9V60.5z"/>
		<path class="st1" d="M122.5,62.8h-2.5c0,0.6,0.1,1,0.2,1.2c0.2,0.2,0.4,0.3,0.6,0.3c0.4,0,0.7-0.3,0.8-0.8l0.8,0.1
			c-0.2,0.9-0.8,1.4-1.6,1.4c-0.5,0-1-0.2-1.3-0.6c-0.3-0.4-0.5-1-0.5-1.7c0-0.8,0.2-1.4,0.5-1.8c0.3-0.4,0.8-0.6,1.3-0.6
			c0.4,0,0.7,0.1,1,0.3c0.3,0.2,0.4,0.5,0.5,0.8C122.4,61.8,122.4,62.3,122.5,62.8z M121.5,62.2c0-0.8-0.3-1.2-0.8-1.2
			c-0.5,0-0.7,0.4-0.8,1.2H121.5z"/>
		<path class="st1" d="M125.9,61.5l-0.7,0.2c-0.1-0.4-0.4-0.7-0.8-0.7c-0.2,0-0.3,0.1-0.4,0.2c-0.1,0.1-0.2,0.2-0.2,0.4
			c0,0.2,0.1,0.3,0.2,0.4s0.3,0.2,0.7,0.3c0.5,0.2,0.8,0.3,1,0.5c0.2,0.2,0.3,0.5,0.3,0.8c0,0.4-0.1,0.7-0.4,1
			c-0.3,0.3-0.7,0.4-1.2,0.4c-0.9,0-1.5-0.4-1.6-1.3l0.8-0.1c0.1,0.5,0.4,0.8,0.8,0.8c0.2,0,0.4-0.1,0.5-0.2s0.2-0.3,0.2-0.4
			c0-0.1,0-0.2-0.1-0.3c-0.1-0.1-0.3-0.2-0.7-0.3c-0.3-0.1-0.6-0.2-0.8-0.3c-0.2-0.1-0.3-0.2-0.4-0.4S123,62,123,61.7
			c0-0.4,0.1-0.7,0.4-1s0.6-0.4,1.1-0.4C125.2,60.4,125.7,60.7,125.9,61.5z"/>
	</g>
</g>
<rect x="9" y="53.1" class="st1" width="153.9" height="0.9"/>
<rect x="14.6" y="55.3" class="st1" width="142.7" height="0.9"/>
<path class="st1" d="M86.4,94C86.4,94,86.4,94,86.4,94l-0.8,0c0,0,0,0,0,0c-0.2-0.9-8.9-8.3-24.8-9.7c-11.8-1.1-14.5-0.8-18-0.5
	c-1,0.1-2,0.2-3.3,0.3c-5.7,0.3-15.1-2.2-17.5-10.6c-1.2-4.1-1-6.7-0.8-7.7c-2.3,0-10.7-0.5-16.3-6C1.6,56.6,0,52.3,0,47
	c0-5.3,1.6-9.6,4.9-12.8c5.6-5.4,14-5.9,16.3-5.9c-0.2-1.1-0.4-3.6,0.8-7.7c2.4-8.4,11.8-10.9,17.5-10.6c1.3,0.1,2.3,0.2,3.3,0.3
	c3.4,0.3,6.2,0.6,18-0.5C76.6,8.3,85.3,0.9,85.6,0c0,0,0,0,0,0h0.9c0,0,0,0,0,0c0.2,0.9,8.9,8.3,24.8,9.7c11.8,1.1,14.5,0.8,18,0.5
	c1-0.1,2-0.2,3.3-0.3c5.7-0.3,15.1,2.2,17.5,10.6c1.2,4.1,1,6.6,0.8,7.7c2.3-0.1,10.4,0.1,16,5.3c3.4,3.2,5.2,7.8,5.2,13.5
	c0,5.8-1.7,10.3-5.2,13.5c-5.6,5.2-13.7,5.3-16,5.3c0.2,1.1,0.4,3.6-0.8,7.7c-2.3,7.9-10.8,10.6-16.5,10.6c-0.3,0-0.7,0-1,0
	c-1.3-0.1-2.3-0.2-3.3-0.3c-3.4-0.3-6.2-0.6-18,0.5C95.4,85.7,86.7,93.1,86.4,94z M48.1,82.6c2.6,0,6.4,0.2,12.8,0.8
	c8.5,0.8,14.8,3.3,18.7,5.2c3,1.5,5.5,3.3,6.5,4.5c1-1.2,3.5-3,6.5-4.5c3.8-1.9,10.1-4.4,18.7-5.2c11.9-1.1,14.6-0.8,18.1-0.5
	c1,0.1,2,0.2,3.3,0.3c5.4,0.3,14.3-2.1,16.6-9.9c1.5-5.2,0.7-7.8,0.6-7.8l-0.2-0.6l0.7,0c0.1,0,9.9,0.7,15.9-5
	c3.3-3,4.9-7.4,4.9-12.9s-1.7-9.8-4.9-12.9c-6.1-5.7-15.8-5-15.9-5l-0.7,0.1l0.2-0.6c0,0,0.9-2.6-0.6-7.8
	c-2.3-7.9-11.2-10.3-16.6-9.9c-1.3,0.1-2.3,0.2-3.3,0.3c-3.5,0.3-6.2,0.6-18.1-0.5c-8.5-0.8-14.8-3.3-18.7-5.2
	c-3-1.5-5.5-3.3-6.5-4.5c-1,1.2-3.5,3-6.5,4.5c-3.8,1.9-10.1,4.4-18.7,5.2c-11.9,1.1-14.6,0.8-18.1,0.5c-1-0.1-2-0.2-3.3-0.3
	c-5.4-0.3-14.3,2.1-16.6,9.9c-1.5,5.2-0.7,7.8-0.6,7.8l0.2,0.6l-0.6,0c-0.1,0-10.2-0.2-16.2,5.7c-3.1,3-4.6,7.1-4.6,12.2
	s1.6,9.2,4.6,12.2c6.1,5.9,16.1,5.7,16.2,5.7l0.6,0l-0.2,0.6c0,0-0.9,2.6,0.6,7.8c2.3,7.9,11.2,10.3,16.6,9.9
	c1.3-0.1,2.3-0.2,3.3-0.3C44.3,82.8,45.8,82.6,48.1,82.6z"/>
<path class="st1" d="M86.4,89.6c0,0,0,0,0-0.1h-0.9c0,0.1,0,0.1,0,0.1c-0.5-0.9-10.8-7.5-21.9-8.6c-10.7-1-15.4-1-21.8-0.3
	c-2.1,0.2-5.5,0-8.8-1.3c-2.6-1-5.9-3.1-7.5-7.1c-1.6-4.1-1.2-7.1-0.8-8.3c-2.3,0-10.5-0.4-15.7-5.5c-3-2.9-4.5-6.7-4.5-11.5
	s1.5-8.7,4.5-11.5c5.3-5.1,13.5-5.5,15.7-5.5c-0.3-1.2-0.7-4.2,0.8-8.3c1.5-4,4.9-6.1,7.5-7.1c3.3-1.3,6.7-1.5,8.8-1.3
	c6.4,0.7,11.1,0.7,21.8-0.3c11.1-1,21.4-7.7,21.9-8.6c0,0,0,0,0,0.1h0.9c0-0.1,0-0.1,0-0.1c0.5,0.9,10.8,7.5,21.9,8.6
	c10.7,1,15.4,1,21.8,0.3c2.1-0.2,5.5,0,8.8,1.3c2.6,1,5.9,3.1,7.5,7.1c1.6,4.2,1.2,7.1,0.8,8.3c2.3,0,10.6,0.5,15.8,5.7
	c2.9,2.9,4.4,6.7,4.4,11.3c0,5.4-1.6,9.5-4.9,12.5c-5.3,4.8-13.1,4.7-15.3,4.6c0.3,1.2,0.7,4.2-0.9,8.3c-1.5,4-4.9,6.1-7.5,7.1
	c-3.3,1.3-6.7,1.5-8.8,1.3c-6.4-0.7-11.1-0.7-21.8,0.3C97.2,82.1,86.9,88.8,86.4,89.6z M50.1,79.4c3.6,0,7.7,0.3,13.7,0.8
	c6.5,0.6,12.5,3.1,15.5,4.5c1.9,0.9,3.7,1.9,5.1,2.8c0.9,0.6,1.4,1,1.7,1.3c0.3-0.3,0.8-0.7,1.7-1.3c1.4-0.9,3.2-1.9,5.1-2.8
	c3-1.4,9-3.9,15.5-4.5c10.8-1,15.5-1.1,22-0.3c3.9,0.4,12.7-0.9,15.3-7.9c1.9-5.1,0.7-8.3,0.7-8.3l-0.3-0.7l0.7,0.1
	c0.1,0,9.5,1,15.3-4.3c3-2.8,4.6-6.7,4.6-11.8c0-4.4-1.4-8-4.1-10.7c-5.8-5.7-15.7-5.4-15.8-5.4l-0.7,0l0.2-0.6c0,0,1.2-3.2-0.7-8.3
	c-2.7-7-11.5-8.3-15.3-7.9c-6.5,0.7-11.2,0.7-22-0.3c-6.5-0.6-12.5-3.1-15.5-4.5c-1.9-0.9-3.7-1.9-5.1-2.8c-0.9-0.6-1.4-1-1.7-1.3
	c-0.3,0.3-0.8,0.7-1.7,1.3c-1.4,0.9-3.2,1.9-5.1,2.8c-3,1.4-9,3.9-15.5,4.5c-10.8,1-15.5,1.1-22,0.3C37.9,13.6,29.1,15,26.5,22
	c-1.9,5.1-0.7,8.3-0.7,8.3l0.2,0.6l-0.7,0c-0.1,0-9.9-0.4-15.7,5.2C6.9,38.8,5.5,42.5,5.5,47c0,4.5,1.4,8.2,4.2,10.9
	c5.8,5.6,15.6,5.2,15.7,5.2l0.7,0l-0.3,0.6c0,0-1.2,3.2,0.7,8.3c2.7,7,11.5,8.3,15.3,7.9C44.7,79.6,47.2,79.4,50.1,79.4z"/>
</svg>
