<svg id="Layer_1" data-name="Layer 1" xmlns="http://www.w3.org/2000/svg" width="104" height="104" viewBox="0 0 104 104">
  <title>pryanik_domik_logo</title>
  <g>
    <path d="M80.6,23.8l-5.8-4.6a3.2,3.2,0,0,0-4.1-.3,34.3,34.3,0,0,0-6.2,4.9c-4.6,5.2-9,10.7-13.3,16.2a20.6,20.6,0,0,0-2.7,4.5c-.8,1.8.2,3.1,2.1,2.8a5.6,5.6,0,0,0,3-1.5c3.2-3.3,6.2-6.8,9.3-10.1a81.7,81.7,0,0,1,7-6.7c2.1-1.7,3.5-1.6,5.5.1a54,54,0,0,1,4.9,4.7c4.5,4.9,8.7,10,13.3,14.8a14.5,14.5,0,0,0,5.8,3.1c1.5.5,2.3-.7,1.6-2.2a16.5,16.5,0,0,0-1.8-2.8c-3.1-4-6.2-8.1-9.5-12s-4-5.6-3.1-9.5a3,3,0,0,0-2.3-3.8C82.3,21,81,21.7,80.6,23.8Z" fill="#882d01"/>
    <path d="M53.3,88.3c-1.3-3.7-2.4-6.8-3.6-9.8-.2-.6-1.3-1.4-1.7-1.3a2.9,2.9,0,0,0-1.6,1.7,16,16,0,0,0-.5,4.1c-.1,4.8,0,9.6,0,14.4,0,1,0,2.1,0,3.1s.7,2.5,2.2,2.5,1.6-1.2,1.6-2.4c.1-4.1.3-8.2.5-12.2h.2l2.8,8.6,3.3-8.7c0,.9,0,1.6,0,2.2-.1,3.4-.2,6.9-.1,10.3,0,1.2.3,2.5,1.9,2.4s1.9-1.1,2-2.4.1-1.5.2-2.3c.1-6.3.2-12.6.1-18.9a3.2,3.2,0,0,0-1.7-2.3c-1.4-.6-1.8.8-2.1,1.9Z" fill="#882d01"/>
    <path d="M1.2,59.8H1.1c0,4,0,8.1,0,12.1,0,1.5-.3,3.6,1.6,3.7s2.1-2,2.1-3.6c0-4.5-.2-9-.2-13.5s.1-6.2.4-9.2c.1-.7.9-1.3,1.3-2a11.1,11.1,0,0,1,1.3,2.1,6.5,6.5,0,0,1,.1,2c0,5.3,0,10.6,0,15.9,0,1.2-.1,2.5-.2,3.7a18.3,18.3,0,0,0-.1,3.1c.2,1.3.9,1.9,2.3,1.4S11,74.3,11,73.1c0-8.6-.1-17.2-.1-25.9,0-1-.3-1.9-.3-2.9s-.5-1.7-1.8-1.6-3.3-.1-4.9-.2-2.7.6-2.7,2.6C1.3,50.1,1.2,54.9,1.2,59.8Z" fill="#882d01"/>
    <path d="M68.5,60.1c0-2.6.1-5,0-7.4a5,5,0,0,0-.7-2.4,2,2,0,0,0-1.7-.7A2.1,2.1,0,0,0,65,51.1c-.3,2.6-.4,5.2-.5,7.8s-.1,7.2-.1,10.9a19,19,0,0,0,.3,4.1c.1.6,1,1.5,1.5,1.6s1.3-.8,1.7-1.4a3.7,3.7,0,0,0,.4-1.8c.2-2.9.5-5.8.7-8.8,1.7-.1,2.1.7,1.9,2.3a67.2,67.2,0,0,0-.2,8c0,.6,1,1.5,1.6,1.7s1.3-.8,1.6-1.4a5.9,5.9,0,0,0,.6-2.6,50.6,50.6,0,0,0-.2-5.3c-.1-1.5-.5-3-.6-4a47.9,47.9,0,0,0,.9-4.9c.2-2,.1-4,.1-6s0-1.9-1.5-1.9-2,.3-2.1,1.6a65,65,0,0,0-.4,7C70.9,59.6,70.3,59.9,68.5,60.1Z" fill="#882d01"/>
    <path d="M83.9,58.1c-5.8-.1-7.7,1.6-7.4,5.1s1.7,3.6,4.1,2.1a5.4,5.4,0,0,1,4.7-.7l3.4.8c3.6.6,7.1,1.7,10.7.5s4-2.6,3.3-5.7-1.4-2.1-3.2-1.8a49.3,49.3,0,0,1-8.3.5C88.4,58.8,85.6,58.3,83.9,58.1Z" fill="#882d01"/>
    <path d="M82.4,6.6l-.2-1a11,11,0,0,1,3-1.4A48.7,48.7,0,0,1,90.9,4c2.7-.1,5.3,0,7.9-.3a2.2,2.2,0,0,0,1.4-1.6A2.2,2.2,0,0,0,98.8.6c-6.3-1-12.6-.8-18.6,1.7-2.5,1-2.9,3.6-.9,5.4a6.5,6.5,0,0,0,3.3,1.4c2.3.3,4.6.2,7,.4a9.1,9.1,0,0,1,1.9.6v.6l-3.8,1.9a25.7,25.7,0,0,0-3.7,1.8c-2.1,1.5-2.2,3.5-.2,5.3.3-3.3,1.6-4.6,4.8-4.9a18.7,18.7,0,0,0,4.4-1c1.5-.5,2.9-1.4,2.7-3.4s-1.6-2.5-3.5-2.7S85.7,7,82.4,6.6Z" fill="#882d01"/>
    <path d="M70.3,45.3c2.3.3,4.2,0,5.3-1.9a4.7,4.7,0,0,0,.3-2.9c0-.3-1.3-.5-2-.5-3.6-.1-3.6-.1-3.6,3.5C70.3,44,70.3,44.5,70.3,45.3Z" fill="#882d01"/>
    <path d="M73.6,38.7c2.6,0,2.8-.1,2.8-1.3s-1.5-2.9-3.4-2.9-2.4.1-2.4,2.1S72.1,38.7,73.6,38.7Z" fill="#882d01"/>
    <path d="M69.4,42.8c-.5-1.4.2-3-2.2-2.9s-2.2.3-2.1,1.9S67,46.1,68,45.6,68.9,43.8,69.4,42.8Z" fill="#882d01"/>
    <path d="M80.6,23.8c.4-2.1,1.7-2.8,3.7-2.3a3,3,0,0,1,2.3,3.8c-.9,3.9.7,6.7,3.1,9.5s6.4,8,9.5,12a16.5,16.5,0,0,1,1.8,2.8c.7,1.5,0,2.7-1.6,2.2a14.5,14.5,0,0,1-5.8-3.1C89,44,84.7,38.9,80.2,33.9a54,54,0,0,0-4.9-4.7c-2-1.7-3.4-1.8-5.5-.1a81.7,81.7,0,0,0-7,6.7c-3.2,3.3-6.1,6.8-9.3,10.1a5.6,5.6,0,0,1-3,1.5c-1.9.3-2.9-1-2.1-2.8A20.6,20.6,0,0,1,51.2,40c4.4-5.5,8.7-10.9,13.3-16.2a34.3,34.3,0,0,1,6.2-4.9,3.2,3.2,0,0,1,4.1.3Z" fill="#882d01"/>
    <path d="M53.3,88.3l3.5-9.3c.4-1,.7-2.4,2.1-1.9a3.2,3.2,0,0,1,1.7,2.3c.1,6.3,0,12.6-.1,18.9,0,.8-.1,1.5-.2,2.3s-.6,2.4-2,2.4-1.9-1.2-1.9-2.4c0-3.4.1-6.9.1-10.3,0-.6,0-1.2,0-2.2l-3.3,8.7-2.8-8.6h-.2c-.2,4.1-.4,8.2-.5,12.2,0,1.2-.2,2.4-1.6,2.4s-2.1-1-2.2-2.5,0-2.1,0-3.1c0-4.8,0-9.6,0-14.4a16,16,0,0,1,.5-4.1A2.9,2.9,0,0,1,48,77.1c.4-.1,1.4.7,1.7,1.3C50.9,81.5,52,84.6,53.3,88.3Z" fill="#882d01"/>
    <path d="M85.8,85.7c.2,1.3.5,2.8.6,4.3s.2,4.9.2,7.4a15.3,15.3,0,0,1-.7,4v.3a1.5,1.5,0,0,1-2.5.1,1.1,1.1,0,0,1-.3-.6,64.3,64.3,0,0,1-.3-6.9c0-1.6.2-3.3.3-4.9s-.4-2.2-1.9-2c-.2,3.7-.4,7.4-.6,11.1-.1,1.7-.1,4.2-2,4.2s-1.7-2.4-1.8-4,0-3,0-4.5c0-4.4-.1-8.8,0-13.1s.2-6.3.5-9.4a1.9,1.9,0,0,1,.3-.8,1.5,1.5,0,0,1,2.2-.3l.6.7a5.4,5.4,0,0,1,.3,2.4c0,3.1,0,6.2,0,9.4l1,.3c.4-.7,1.2-1.4,1.3-2.2.3-3.1.3-6.3.4-9.4,0-1.4.4-2.3,2-2.2s1.4,1.3,1.4,2.4c0,2.9,0,5.8-.1,8.6A44.7,44.7,0,0,1,85.8,85.7Z" fill="#882d01"/>
    <path d="M1.2,45.2c0-2.3.9-2.9,3.6-2.5a17,17,0,0,0,3.7.1c1.4-.1,2,.3,2.1,1.6s.3,1.9.3,2.9c0,8.6.1,17.2.1,25.9,0,1.1-.1,2-1.4,2.4s-2.2-.1-2.3-1.4a18.3,18.3,0,0,1,.1-3.1c.1-1.2.2-2.5.2-3.7,0-5.3,0-10.6,0-15.9a6.5,6.5,0,0,0-.1-2l-.2-.5a1.3,1.3,0,0,0-2.4.2v.2c-.3,3.1-.4,6.1-.4,9.2s.2,9,.2,13.5c0,1.6-.1,3.7-2.1,3.6s-1.6-2.2-1.6-3.7c0-4,0-8.1,0-12.1C1.1,59.8,1.3,50.1,1.2,45.2Z" fill="#882d01"/>
    <path d="M17.5,74.6c-.1,1.7-.2,3.2-.3,4.6a5.2,5.2,0,0,1-.5,2.4,2.8,2.8,0,0,1-2,1.1c-.4,0-1.2-1-1.2-1.6q-.1-14.7,0-29.4c0-1.8,1.5-2.5,3-1.7a1.9,1.9,0,0,0,1.4.2c2.8-1,5.3.2,5.3,3.1.1,6.2,0,12.3-.4,18.5C22.6,74.9,20.9,75.7,17.5,74.6Zm.3-3,1,.2a2.1,2.1,0,0,0,.6-1.3q0-7.9-.2-15.8v-.2a1,1,0,0,0-1.5.2v.2a3.2,3.2,0,0,0-.1,1.2c.1,4.5.1,8.9.2,13.4A17.8,17.8,0,0,0,17.8,71.6Z" fill="#882d01"/>
    <path d="M20.9,100.1a5.1,5.1,0,0,0,0,1.5c.5,1.4.1,2.4-1.4,2.5s-2.6-.5-2.4-2.3,0-3.2,1.6-4.7.9-3.8,1.2-5.8c.7-4,1.4-8.1,1.9-12.1a2.1,2.1,0,0,1,2.3-2h3.5c3.1.2,3.1.2,3,3.2-.1,4.7-.4,9.4-.4,14.1,0,1.3-.4,3,1.6,3.7s1.4,4.7.5,5.3a4.6,4.6,0,0,1-2.7.6c-.3,0-.8-1.1-.8-1.8a2,2,0,0,0-2.3-2.2Zm5.5-2.9c0-6,0-11.6,0-17.3h-.7c-1.2,5.6-2.1,11.2-2.8,17.1Z" fill="#882d01"/>
    <path d="M67,89.8c1.4-4.1,2.6-7.9,4-11.7.3-.7,1.7-1,2.7-1.1s1.1.8,1.1,1.3q-.1,11.2-.4,22.4a2.3,2.3,0,0,1-1,1.7c-1.4.7-2.3,0-2.3-1.7,0-4.1,0-8.2-.4-12.4l-.5,1.1c-.9,2.1-1.9,4.1-2.6,6.2s-.7,3.3-1.2,4.9a2.3,2.3,0,0,1-.5.8,1.7,1.7,0,0,1-2.4.2,1.4,1.4,0,0,1-.6-.8c-.2-3.2-.1-6.4-.2-9.6s-.2-7.4-.1-11.1c0-1.4.2-2.8,2-3.1s2.5.5,2.1,2.2A23.4,23.4,0,0,0,67,89.8Z" fill="#882d01"/>
    <path d="M58.2,61.4c-1.2,2.9-2.5,5.7-3.7,8.7-.4,1.1-.3,2.3-.7,3.4l-.3.5a1.7,1.7,0,0,1-2.5.4,1.6,1.6,0,0,1-.6-.8,17.5,17.5,0,0,1-.5-4.7q0-7.8.1-15.6a4,4,0,0,1,.6-2.5,4,4,0,0,1,2.6-.9c.3,0,.9,1.4.8,2.1a27.4,27.4,0,0,0,.3,10.7c1.3-3.8,2.7-7.4,3.8-11.1.5-1.7,1.5-1.9,2.9-1.8s1.2,1.3,1.2,2.3q-.2,10.2-.3,20.4c0,.6.1,1.5-.2,1.8a4.8,4.8,0,0,1-2.3,1.1c-.2,0-.9-1-.9-1.6-.1-4.1,0-8.2,0-12.3Z" fill="#882d01"/>
    <path d="M31.6,64c-1.7-.6-2.1.2-2.1,1.5s-.1,5.1-.2,7.6-.4,2-1.7,2.1-2.3-.3-2.2-1.7c.3-3.6.9-7.3,1.3-10.9a2.4,2.4,0,0,0-.3-1.4c-1.8-2.9-1.2-5.9,0-8.7s6.2-3.9,8.4-2.7a2.4,2.4,0,0,1,.9,1.8c0,7.2,0,14.5-.1,21.7a1.6,1.6,0,0,1-.5,1,1.4,1.4,0,0,1-2,.1,1.6,1.6,0,0,1-.6-.9C32,70.4,31.9,67.3,31.6,64Zm-.1-8.8V55a.6.6,0,0,0-1,0,4.6,4.6,0,0,0-.6,1.9,4.3,4.3,0,0,0,.6,1.9.6.6,0,0,0,1,0h0A3.8,3.8,0,0,0,31.6,55.2Z" fill="#882d01"/>
    <path d="M68.5,60.1c1.7-.2,2.4-.6,2.3-2.1a65,65,0,0,1,.4-7c.1-1.3.9-1.7,2.1-1.6s1.5.9,1.5,1.9,0,4-.1,6a47.9,47.9,0,0,1-.9,4.9c.2,1,.5,2.5.6,4a50.6,50.6,0,0,1,.2,5.3A5.9,5.9,0,0,1,74,74c-.3.6-1.3,1.5-1.6,1.4s-1.6-1.1-1.6-1.7a67.2,67.2,0,0,1,.2-8c.1-1.6-.2-2.4-1.9-2.3-.2,3-.5,5.9-.7,8.8a3.7,3.7,0,0,1-.4,1.8c-.4.6-1.2,1.4-1.7,1.4s-1.4-.9-1.5-1.6a19,19,0,0,1-.3-4.1c0-3.6,0-7.2.1-10.9s.2-5.2.5-7.8a2.1,2.1,0,0,1,1.1-1.5,2,2,0,0,1,1.7.7,5,5,0,0,1,.7,2.4C68.6,55.1,68.5,57.5,68.5,60.1Z" fill="#882d01"/>
    <path d="M34.1,81.3c.5-3.4,2-4.5,5.1-4.3s3.9,1.2,4.1,4,.6,6.4.6,9.6a50.6,50.6,0,0,1-.8,8.3,4.8,4.8,0,0,1-5.2,3.9,5.4,5.4,0,0,1-4.2-5.1c0-2.3,0-4.5,0-6.8A70.7,70.7,0,0,1,34.1,81.3Zm3.8,17.5a.7.7,0,0,0,.8.5H39a.8.8,0,0,0,.7-.7c.1-.9,0-1.7,0-2.6.1-4.1.2-8.2.1-12.3a2.5,2.5,0,0,0-.3-1,.8.8,0,0,0-1.4,0l-.4,1.1c0,.1,0,.1,0,.2,0,4.6,0,9.2.1,13.8A5,5,0,0,0,37.9,98.8Z" fill="#882d01"/>
    <path d="M42.9,63.3a7.1,7.1,0,0,0-1,2.2c-.1,1.8.1,3.7,0,5.5a5.5,5.5,0,0,1-.5,2.8,2.8,2.8,0,0,1-1,.8,1.7,1.7,0,0,1-2.3-.6,1.6,1.6,0,0,1-.2-.8c.1-7.1.2-14.1.4-21.1A2.8,2.8,0,0,1,39.8,50c1.2-.2,1.9.8,1.9,2.1s.1,4.2.4,6.3a7.8,7.8,0,0,0,1,2.2h.7a6.3,6.3,0,0,0,.5-1.7c0-1.6-.2-3.1-.3-4.7a13.6,13.6,0,0,1,.2-2.8,1.6,1.6,0,0,1,2.3-1.3,2.9,2.9,0,0,1,1.5,2c.1,4.5.1,9,.1,13.5,0,2.6,0,5.2-.1,7.8v.2a1.7,1.7,0,0,1-2.8.8l-.3-.4a5.3,5.3,0,0,1-.5-2.6c-.1-1.7,0-3.4,0-5.1a16.5,16.5,0,0,0-.6-2.6Z" fill="#882d01"/>
    <path d="M83.9,58.1c1.6.2,4.5.7,7.3.8a49.3,49.3,0,0,0,8.3-.5c1.8-.3,2.8.1,3.2,1.8s-.2,4.8-3.3,5.7-7.2.1-10.7-.5l-3.4-.8a5.4,5.4,0,0,0-4.7.7c-2.4,1.5-3.9.7-4.1-2.1S78.2,58,83.9,58.1Z" fill="#882d01"/>
    <path d="M82.4,6.6c3.3.4,6.6.9,9.9,1.1s3.2.7,3.5,2.7-1.2,2.8-2.7,3.4a18.7,18.7,0,0,1-4.4,1c-3.2.3-4.5,1.6-4.8,4.9-1.9-1.8-1.9-3.8.2-5.3a25.7,25.7,0,0,1,3.7-1.8l3.8-1.9v-.6a9.1,9.1,0,0,0-1.9-.6c-2.3-.2-4.7-.1-7-.4a6.5,6.5,0,0,1-3.3-1.4c-2-1.8-1.6-4.4.9-5.4C86.2-.2,92.5-.4,98.8.6a2.2,2.2,0,0,1,1.5,1.5,2.2,2.2,0,0,1-1.4,1.6c-2.6.2-5.3.2-7.9.3a48.7,48.7,0,0,0-5.7.2,11,11,0,0,0-3,1.4Z" fill="#882d01"/>
    <path d="M70.3,45.3c0-.7,0-1.3,0-1.8,0-3.6,0-3.6,3.6-3.5.7,0,1.9.3,2,.5a4.7,4.7,0,0,1-.3,2.9C74.5,45.3,72.6,45.5,70.3,45.3Z" fill="#882d01"/>
    <path d="M73.6,38.7c-1.5,0-3,.3-3-2.1s.9-2.1,2.4-2.1,3.5,1.3,3.4,2.9S76.2,38.7,73.6,38.7Z" fill="#882d01"/>
    <path d="M69.4,42.8c-.4.9-.6,2.3-1.4,2.7s-2.8-2-2.9-3.8.7-1.8,2.1-1.9S68.9,41.4,69.4,42.8Z" fill="#882d01"/>
    <path d="M66.9,39c-1.9-.3-2.2-.7-1-1.9l2-2.1a.6.6,0,0,1,.8,0,2,2,0,0,1,.6,1C69.5,37.6,69.5,39.1,66.9,39Z" fill="#882d01"/>
  </g>
</svg>
