<?xml version="1.0" encoding="utf-8"?>
<!-- Generator: Adobe Illustrator 19.1.1, SVG Export Plug-In . SVG Version: 6.00 Build 0)  -->
<svg version="1.1" id="Layer_1" xmlns="http://www.w3.org/2000/svg" xmlns:xlink="http://www.w3.org/1999/xlink" x="0px" y="0px"
	 width="15px" height="16px" viewBox="0 0 15 16" style="enable-background:new 0 0 15 16;" xml:space="preserve">
<style type="text/css">
	.st0{fill:#010101;}
</style>
<path class="st0" d="M11.7,11.2c0.9-1.2,1.4-2.7,1.4-4.3c0-3.8-2.9-6.9-6.6-6.9S0,3.1,0,6.9s2.9,6.9,6.6,6.9c1.5,0,2.8-0.5,3.9-1.3
	l3,3.2c0.2,0.2,0.4,0.3,0.6,0.3s0.5-0.1,0.6-0.3c0.4-0.4,0.4-0.9,0-1.3L11.7,11.2z M1.8,6.9c0-2.8,2.2-5.1,4.8-5.1s4.8,2.3,4.8,5.1
	S9.2,12,6.6,12S1.8,9.7,1.8,6.9z"/>
<path class="st0" d="M9.3,6H7.5V4.2c0-0.5-0.4-0.9-0.9-0.9S5.7,3.6,5.7,4.2V6H4C3.5,6,3.2,6.4,3.2,6.9S3.5,7.9,4,7.9h1.7v1.8
	c0,0.5,0.4,0.9,0.9,0.9s0.9-0.4,0.9-0.9V7.9h1.8c0.5,0,0.9-0.4,0.9-0.9S9.8,6,9.3,6z"/>
</svg>
