<?xml version="1.0" encoding="utf-8"?>
<!-- Generator: Adobe Illustrator 19.1.1, SVG Export Plug-In . SVG Version: 6.00 Build 0)  -->
<svg version="1.1" id="Layer_1" xmlns="http://www.w3.org/2000/svg" xmlns:xlink="http://www.w3.org/1999/xlink" x="0px" y="0px"
	 width="25px" height="25px" viewBox="0 0 25 25" style="enable-background:new 0 0 25 25;" xml:space="preserve">
<style type="text/css">
	.st0{fill:#2B2B2B;}
	.st1{fill:#D2BDA8;}
</style>
<path class="st1" d="M19.5,25h-14c-3,0-5.5-2.5-5.5-5.5v-14C0,2.5,2.5,0,5.5,0h14c3,0,5.5,2.5,5.5,5.5v14C25,22.5,22.5,25,19.5,25z
	 M5.5,1.6c-2.1,0-3.9,1.7-3.9,3.9v14c0,2.1,1.7,3.9,3.9,3.9h14c2.1,0,3.9-1.7,3.9-3.9v-14c0-2.1-1.7-3.9-3.9-3.9H5.5z"/>
<g>
	<path class="st1" d="M14.2,13.6c-0.5,0.5-1.1,0.7-1.7,0.7s-1.2-0.2-1.7-0.7l-5-4.8c0,0,0,0,0,0v7.3c0,0.7,0.6,1.2,1.2,1.2h10.8
		c0.7,0,1.2-0.6,1.2-1.2V8.9c0,0,0,0,0,0L14.2,13.6z"/>
	<path class="st1" d="M13,12.4l4.9-4.8H7.1l4.9,4.8C12.3,12.6,12.7,12.6,13,12.4z"/>
</g>
</svg>
