<?xml version="1.0" encoding="utf-8"?>
<!-- Generator: Adobe Illustrator 21.0.0, SVG Export Plug-In . SVG Version: 6.00 Build 0)  -->
<svg version="1.1" id="Layer_1" xmlns="http://www.w3.org/2000/svg" xmlns:xlink="http://www.w3.org/1999/xlink" x="0px" y="0px"
	 width="47px" height="72px" viewBox="-273.5 -21 47 72" style="enable-background:new -273.5 -21 47 72;" xml:space="preserve">
<style type="text/css">
	.st0{fill:#00ACC1;}
</style>
<g transform="translate(0,-952.36218)">
	<path class="st0" d="M-250,931.4c-13,0-23.5,10.4-23.5,23.1c0,4.6,3.2,11.7,5.2,15.4l18.3,33.4l18.3-33.4
		c2.1-3.8,5.2-10.8,5.2-15.4C-226.5,941.7-237,931.4-250,931.4z M-250,944.2c5.8,0,10.4,4.6,10.4,10.3c0,5.7-4.7,10.3-10.4,10.3
		c-5.8,0-10.4-4.6-10.4-10.3C-260.4,948.8-255.8,944.2-250,944.2z"/>
</g>
</svg>
