<?xml version="1.0" encoding="utf-8"?>
<!-- Generator: Adobe Illustrator 19.1.1, SVG Export Plug-In . SVG Version: 6.00 Build 0)  -->
<svg version="1.1" id="Layer_1" xmlns="http://www.w3.org/2000/svg" xmlns:xlink="http://www.w3.org/1999/xlink" x="0px" y="0px"
	 width="25px" height="25px" viewBox="0 0 25 25" style="enable-background:new 0 0 25 25;" xml:space="preserve">
<style type="text/css">
	.st0{fill:#2B2B2B;}
	.st1{fill:#D2BDA8;}
</style>
<path class="st1" d="M19.5,25h-14c-3,0-5.5-2.5-5.5-5.5v-14C0,2.5,2.4,0,5.5,0h14c3,0,5.5,2.5,5.5,5.5v14C25,22.5,22.5,25,19.5,25z
	 M5.5,1.6c-2.1,0-3.9,1.7-3.9,3.9v14c0,2.1,1.7,3.9,3.9,3.9h14c2.1,0,3.9-1.7,3.9-3.9v-14c0-2.1-1.7-3.9-3.9-3.9H5.5z"/>
<path id="Facebook_Messenger_3_" class="st1" d="M13.1,14.1l-1.6-1.7l-3.1,1.7l3.5-3.7l1.6,1.7l3.1-1.7L13.1,14.1z M12.5,6.2
	C9,6.2,6.1,8.8,6.1,12c0,1.8,0.9,3.5,2.4,4.6v2.2l2.2-1.2c0.6,0.2,1.2,0.2,1.8,0.2c3.5,0,6.3-2.6,6.3-5.9S16,6.2,12.5,6.2z"/>
</svg>
