<?xml version="1.0" encoding="utf-8"?>
<!-- Generator: Adobe Illustrator 19.1.1, SVG Export Plug-In . SVG Version: 6.00 Build 0)  -->
<svg version="1.1" id="Layer_1" xmlns="http://www.w3.org/2000/svg" xmlns:xlink="http://www.w3.org/1999/xlink" x="0px" y="0px"
	 width="23px" height="14px" viewBox="0 0 23 14" style="enable-background:new 0 0 23 14;" xml:space="preserve">
<style type="text/css">
	.st0{fill:#EF9A9A;}
	.st1{fill:#BCAAA4;}
	.st2{fill:#F06292;}
</style>
<path class="st2" d="M11.3,14C6.5,14,0.5,8,0.3,7.8C0.1,7.6,0,7.4,0,7.1V6.9c0-0.3,0.1-0.5,0.3-0.7C0.5,6,6.9,0,11.7,0
	c4.8,0,10.8,6,11.1,6.2C22.9,6.4,23,6.6,23,6.9v0.2c0,0.3-0.1,0.5-0.3,0.7C22.5,8,16.1,14,11.3,14z M1.9,7c1.6,1.5,6,5.2,9.5,5.2
	c3.4,0,8.2-3.8,9.8-5.3c-1.6-1.5-6-5.2-9.5-5.2C8.2,1.8,3.5,5.6,1.9,7z"/>
<path class="st2" d="M11.5,12.6c-2.7,0-4.9-2.5-4.9-5.6s2.2-5.6,4.9-5.6s4.9,2.5,4.9,5.6S14.2,12.6,11.5,12.6z M11.5,3.1
	C9.6,3.1,8.1,4.9,8.1,7c0,2.1,1.5,3.9,3.4,3.9s3.4-1.7,3.4-3.9C14.9,4.9,13.4,3.1,11.5,3.1z"/>
</svg>
