<?xml version="1.0" encoding="utf-8"?>
<!-- Generator: Adobe Illustrator 19.1.1, SVG Export Plug-In . SVG Version: 6.00 Build 0)  -->
<svg version="1.1" id="Layer_1" xmlns="http://www.w3.org/2000/svg" xmlns:xlink="http://www.w3.org/1999/xlink" x="0px" y="0px"
	 width="15px" height="15px" viewBox="0 0 15 15" style="enable-background:new 0 0 15 15;" xml:space="preserve">
<style type="text/css">
	.st0{fill:#eb7876;}
</style>
<g>
	<path class="st0" d="M7.5,15C3.4,15,0,11.6,0,7.5C0,3.4,3.4,0,7.5,0c2.7,0,5.4,1.6,6.7,4c0.1,0.2,0,0.5-0.2,0.6
		c-0.2,0.1-0.5,0-0.6-0.2c-1.2-2.1-3.5-3.5-5.9-3.5c-3.6,0-6.6,2.9-6.6,6.6s2.9,6.6,6.6,6.6c3.5,0,6.4-2.8,6.6-6.3
		c0-0.3,0.2-0.5,0.5-0.5c0.3,0,0.5,0.2,0.5,0.5C14.8,11.8,11.6,15,7.5,15z"/>
	<path class="st0" d="M13.8,4.7h-3.7c-0.3,0-0.5-0.2-0.5-0.5s0.2-0.5,0.5-0.5h3.3V0.5c0-0.3,0.2-0.5,0.5-0.5c0.3,0,0.5,0.2,0.5,0.5
		v3.8C14.3,4.5,14.1,4.7,13.8,4.7z"/>
</g>
</svg>
