<?xml version="1.0" encoding="utf-8"?>
<!-- Generator: Adobe Illustrator 19.1.1, SVG Export Plug-In . SVG Version: 6.00 Build 0)  -->
<svg version="1.1" id="Layer_1" xmlns="http://www.w3.org/2000/svg" xmlns:xlink="http://www.w3.org/1999/xlink" x="0px" y="0px"
	 width="20px" height="20px" viewBox="0 0 20 20" style="enable-background:new 0 0 20 20;" xml:space="preserve">
<style type="text/css">
	.st1{fill:#7B491D;}
</style>
<g>
	<path class="st1" d="M9.5,18.6C4.3,18.6,0,14.4,0,9.3C0,4.2,4.3,0,9.5,0S19,4.2,19,9.3C19,14.4,14.8,18.6,9.5,18.6z M9.5,1.7
		c-4.3,0-7.8,3.4-7.8,7.6c0,4.2,3.5,7.6,7.8,7.6c4.3,0,7.8-3.4,7.8-7.6C17.3,5.1,13.8,1.7,9.5,1.7z"/>
	<polygon class="st1" points="18.8,20 14.8,16.1 16,14.9 20,18.8 	"/>
</g>
</svg>
