<?xml version="1.0" encoding="utf-8"?>
<!-- Generator: Adobe Illustrator 19.1.1, SVG Export Plug-In . SVG Version: 6.00 Build 0)  -->
<svg version="1.1" id="Layer_1" xmlns="http://www.w3.org/2000/svg" xmlns:xlink="http://www.w3.org/1999/xlink" x="0px" y="0px"
	 width="38px" height="38px" viewBox="0 0 38 38" style="enable-background:new 0 0 38 38;" xml:space="preserve">

<path class="st1" d="M19,0C8.5,0,0,8.5,0,19c0,10.5,8.5,19,19,19c10.5,0,19-8.5,19-19C38,8.5,29.5,0,19,0z M27.5,29.6
	c0,0-3.9-0.1-5.6-0.1h-7.5l-4.5,0.1v-1.2l1.5-0.3c1.1-0.2,1.4-0.5,1.4-1.4c0,0,0.1-2.9,0.1-7.6c0-4.8-0.1-7.6-0.1-7.6
	c-0.1-1-0.3-1.2-1.4-1.4L9.8,9.8V8.6l4.5,0.1h8.4c1.7,0,4.5-0.3,4.5-0.3s-0.2,1.8-0.4,6h-1.1l-0.4-1.5c-0.5-1.8-1.1-2.8-2.2-2.8
	h-6.6c-0.5,0-0.5,0.2-0.5,0.5v7.7c0,0,3,0,4.3-0.1c1.1-0.1,1.3-0.3,1.6-1.4l0.4-1.7h1.2l-0.2,3.8l0.1,3.8h-1.2l-0.3-1.5
	c-0.3-1.1-0.7-1.4-1.6-1.4c-1.1-0.1-4.2-0.1-4.2-0.1v6.6c0,1.2,0.7,1.8,2.1,1.8h4.3c1.4,0,2.7-0.1,3.6-2.2l1.1-2.6h1.1
	C28.1,23.9,27.6,28.6,27.5,29.6z"/>
</svg>
