<?xml version="1.0" encoding="utf-8"?>
<!-- Generator: Adobe Illustrator 19.1.1, SVG Export Plug-In . SVG Version: 6.00 Build 0)  -->
<svg version="1.1" id="Layer_1" xmlns="http://www.w3.org/2000/svg" xmlns:xlink="http://www.w3.org/1999/xlink" x="0px" y="0px"
	 width="38px" height="38px" viewBox="0 0 38 38" style="enable-background:new 0 0 38 38;" xml:space="preserve">

<path class="st1" d="M19,0C8.5,0,0,8.5,0,19c0,10.5,8.5,19,19,19s19-8.5,19-19C38,8.5,29.5,0,19,0z M10.6,24.2
	c-0.3,0-0.6-0.2-0.7-0.5c-0.1-0.2-0.2-0.6-0.2-1.1c-0.1-1.4,0-3.4,0.4-4.1c0.2-0.3,0.5-0.5,0.8-0.4c0.2,0,0.4,0.1,4.4,1.7
	c0,0,1.2,0.5,1.2,0.5c0.4,0.2,0.7,0.6,0.6,1.1c0,0.5-0.3,0.9-0.7,1c0,0-1.7,0.5-1.7,0.5C10.9,24.1,10.8,24.2,10.6,24.2z M19.1,26.7
	c0,4,0,4.1-0.1,4.3c-0.1,0.3-0.4,0.5-0.7,0.6c-1,0.2-4.1-1-4.7-1.8c-0.1-0.2-0.2-0.3-0.2-0.5c0-0.1,0-0.2,0-0.4
	c0.1-0.2,0.2-0.4,3-3.7c0,0,0.8-1,0.8-1c0.3-0.4,0.8-0.5,1.2-0.3c0.4,0.2,0.7,0.6,0.7,1C19.1,24.9,19.1,26.7,19.1,26.7z M18.4,18.4
	c-0.2,0.1-0.8,0.3-1.6-1c0,0-5.1-8.1-5.2-8.4c-0.1-0.3,0-0.6,0.3-0.9c0.8-0.8,4.9-2,5.9-1.7c0.4,0.1,0.6,0.3,0.7,0.6
	c0.1,0.4,0.6,7.9,0.6,9.6C19.2,18.2,18.6,18.4,18.4,18.4z M21,18.8c0,0,1-1.4,1-1.4c2.3-3.1,2.4-3.3,2.5-3.4c0.3-0.2,0.6-0.2,0.9,0
	c0.9,0.4,2.7,3.2,2.8,4.2c0,0,0,0,0,0c0,0.4-0.1,0.6-0.4,0.8c-0.2,0.1-0.3,0.2-4.5,1.2c-0.7,0.2-1,0.3-1.3,0.3c0,0,0,0,0,0
	c-0.4,0.1-0.9-0.1-1.2-0.5C20.7,19.6,20.7,19.2,21,18.8z M28.4,25.6c-0.1,1-2.2,3.7-3.1,4c-0.3,0.1-0.6,0.1-0.9-0.1
	c-0.2-0.1-0.3-0.4-2.5-4l-0.7-1.1C21,24,21,23.5,21.3,23.1c0.3-0.4,0.8-0.5,1.1-0.4c0,0,1.6,0.6,1.6,0.6c3.7,1.2,3.8,1.3,4,1.4
	C28.3,24.9,28.4,25.2,28.4,25.6z"/>
</svg>
