<?xml version="1.0" encoding="utf-8"?>
<!-- Generator: Adobe Illustrator 19.1.1, SVG Export Plug-In . SVG Version: 6.00 Build 0)  -->
<svg version="1.1" id="Layer_1" xmlns="http://www.w3.org/2000/svg" xmlns:xlink="http://www.w3.org/1999/xlink" x="0px" y="0px"
	 width="38px" height="38px" viewBox="0 0 38 38" style="enable-background:new 0 0 38 38;" xml:space="preserve">
<path class="st1" d="M19.1,0h-0.2C8.5,0,0,8.5,0,18.9v0.2C0,29.5,8.5,38,18.9,38h0.2C29.5,38,38,29.5,38,19.1v-0.2
	C38,8.5,29.5,0,19.1,0z M26.7,15c0,0.2,0,0.3,0,0.5c0,5.3-4,11.3-11.3,11.3c-2.2,0-4.3-0.7-6.1-1.8c0.3,0,0.6,0.1,0.9,0.1
	c1.9,0,3.6-0.6,4.9-1.7c-1.7,0-3.2-1.2-3.7-2.8c0.2,0,0.5,0.1,0.7,0.1c0.4,0,0.7,0,1-0.1c-1.8-0.4-3.2-2-3.2-3.9v-0.1
	c0.5,0.3,1.1,0.5,1.8,0.5c-1.1-0.7-1.8-1.9-1.8-3.3c0-0.7,0.2-1.4,0.5-2c2,2.4,4.9,4,8.2,4.2c-0.1-0.3-0.1-0.6-0.1-0.9
	c0-2.2,1.8-4,4-4c1.1,0,2.2,0.5,2.9,1.3c0.9-0.2,1.8-0.5,2.5-1c-0.3,0.9-0.9,1.7-1.7,2.2c0.8-0.1,1.6-0.3,2.3-0.6
	C28.2,13.8,27.5,14.5,26.7,15z"/>
</svg>
