<?xml version="1.0" encoding="utf-8"?>
<!-- Generator: Adobe Illustrator 19.1.1, SVG Export Plug-In . SVG Version: 6.00 Build 0)  -->
<svg version="1.1" id="Layer_1" xmlns="http://www.w3.org/2000/svg" xmlns:xlink="http://www.w3.org/1999/xlink" x="0px" y="0px"
	 width="38px" height="38px" viewBox="0 0 38 38" style="enable-background:new 0 0 38 38;" xml:space="preserve">

<g>
	<polygon class="st1" points="15.5,23.7 22.8,19.4 15.5,15 	"/>
	<path class="st1" d="M19,0C8.5,0,0,8.5,0,19c0,10.5,8.5,19,19,19c10.5,0,19-8.5,19-19C38,8.5,29.5,0,19,0z M30.2,20.3
		c0,2.1-0.2,4.1-0.2,4.1s-0.2,1.8-1,2.4c-1,1-1.9,1-2.4,1.1c-3.2,0.3-8.3,0.3-8.3,0.3s-6.2,0-7.9-0.3c-0.5-0.2-1.6,0-2.6-1.1
		c-0.6-0.8-1-2.4-1-2.4s-0.2-2.1-0.2-4.1v-1.9c0-2.1,0.2-4.1,0.2-4.1s0.2-1.8,1-2.4c0.8-1.1,1.8-1.1,2.3-1.1
		c3.2-0.2,8.3-0.2,8.3-0.2l8.3,0.3c0.5,0,1.5,0,2.4,1.1c0.6,0.8,1,2.4,1,2.4s0.2,2.1,0.2,4.1V20.3z"/>
</g>
</svg>
