<?xml version="1.0" encoding="utf-8"?>
<!-- Generator: Adobe Illustrator 19.1.1, SVG Export Plug-In . SVG Version: 6.00 Build 0)  -->
<svg version="1.1" id="Layer_1" xmlns="http://www.w3.org/2000/svg" xmlns:xlink="http://www.w3.org/1999/xlink" x="0px" y="0px"
	 width="38px" height="38px" viewBox="0 0 38 38" style="enable-background:new 0 0 38 38;" xml:space="preserve">
<path class="st1" d="M19.1,0h-0.2C8.5,0,0,8.5,0,18.9v0.2C0,29.5,8.5,38,18.9,38h0.2C29.5,38,38,29.5,38,19.1v-0.2
	C38,8.5,29.5,0,19.1,0z M14.4,27c-4.5,0-8-3.5-8-8s3.5-8,8-8c2.2,0,4,0.8,5.4,2.2l-2.2,2.1C17.1,14.7,16,14,14.4,14
	c-2.7,0-4.9,2.3-4.9,5s2.2,5,4.9,5c3.2,0,4.3-2.3,4.6-3.4h-4.6v-2.7H22c0.1,0.5,0.1,0.8,0.1,1.4C22.1,23.8,19,27,14.4,27z
	 M31.6,20.1h-2.3v2.3H27v-2.3h-2.3v-2.3H27v-2.3h2.3v2.3h2.3V20.1z"/>
</svg>
