<?xml version="1.0" encoding="utf-8"?>
<!-- Generator: Adobe Illustrator 19.1.1, SVG Export Plug-In . SVG Version: 6.00 Build 0)  -->
<svg version="1.1" id="Layer_1" xmlns="http://www.w3.org/2000/svg" xmlns:xlink="http://www.w3.org/1999/xlink" x="0px" y="0px"
	 width="38px" height="38px" viewBox="0 0 38 38" style="enable-background:new 0 0 38 38;" xml:space="preserve">

<path class="st1" d="M19,0C8.5,0,0,8.5,0,19c0,10.5,8.5,19,19,19c10.5,0,19-8.5,19-19C38,8.5,29.5,0,19,0z M23.3,19h-2.8v9.4h-4.2
	V19h-2.1v-3.2h2.1v-2c0-2.7,1.2-4.2,4.5-4.2h2.8v3.2H22c-1.3,0-1.4,0.5-1.4,1.3l0,1.6h3.2L23.3,19z"/>
</svg>
