<?xml version="1.0" encoding="utf-8"?>
<svg version="1.1" id="Layer_1" xmlns="http://www.w3.org/2000/svg" xmlns:xlink="http://www.w3.org/1999/xlink" x="0px" y="0px"
	 width="38px" height="38px" viewBox="0 0 38 38" style="enable-background:new 0 0 38 38;" xml:space="preserve">

<g>
	<circle class="st1" cx="24.5" cy="13.6" r="1.2"/>
	<path class="st1" d="M19,13.7c-2.9,0-5.2,2.3-5.2,5.2c0,2.9,2.3,5.2,5.2,5.2c2.9,0,5.2-2.4,5.2-5.2C24.2,16.1,21.9,13.7,19,13.7z
		 M19,21.5c-1.4,0-2.6-1.2-2.6-2.6s1.2-2.6,2.6-2.6c1.4,0,2.6,1.2,2.6,2.6S20.4,21.5,19,21.5z"/>
	<path class="st1" d="M19,0C8.5,0,0,8.5,0,19c0,10.5,8.5,19,19,19c10.5,0,19-8.5,19-19C38,8.5,29.5,0,19,0z M29.2,23.2
		c0,1.8-0.6,3.3-1.7,4.3c-1.1,1-2.5,1.6-4.3,1.6h-8.4c-1.7,0-3.2-0.5-4.3-1.6c-1.1-1.1-1.7-2.6-1.7-4.4v-8.4c0-3.6,2.4-5.9,5.9-5.9
		h8.4c1.7,0,3.2,0.6,4.3,1.7c1.1,1.1,1.6,2.5,1.6,4.3V23.2z"/>
</g>
</svg>
