<?xml version="1.0" encoding="utf-8"?>
<!-- Generator: Adobe Illustrator 19.1.1, SVG Export Plug-In . SVG Version: 6.00 Build 0)  -->
<svg version="1.1" id="Layer_1" xmlns="http://www.w3.org/2000/svg" xmlns:xlink="http://www.w3.org/1999/xlink" x="0px" y="0px"
	 width="25px" height="25px" viewBox="0 0 25 25" style="enable-background:new 0 0 25 25;" xml:space="preserve">
<style type="text/css">
	.st0{fill:#2B2B2B;}
	.st1{fill:#D2BDA8;}
</style>
<path class="st1" d="M19.5,25h-14c-3,0-5.5-2.5-5.5-5.5v-14C0,2.5,2.5,0,5.5,0h14c3,0,5.5,2.5,5.5,5.5v14C25,22.5,22.5,25,19.5,25z
	 M5.5,1.6c-2.1,0-3.9,1.7-3.9,3.9v14c0,2.1,1.7,3.9,3.9,3.9h14c2.1,0,3.9-1.7,3.9-3.9v-14c0-2.1-1.7-3.9-3.9-3.9H5.5z"/>
<path class="st1" d="M18.3,12.5c0-3.2-2.6-5.8-5.8-5.8s-5.8,2.6-5.8,5.8c0,1,0.3,2.1,0.8,3l0.1,0.1l-0.7,2.7l2.8-0.7l0.1,0.1
	c0.9,0.5,1.9,0.7,2.8,0.7C15.7,18.3,18.3,15.7,18.3,12.5z M10.1,12.8c-0.6-0.8-0.8-1.6-0.7-2.2c0.1-0.4,0.4-0.7,0.6-0.9
	c0.1-0.1,0.2-0.1,0.4-0.1l0.4,0c0.1,0,0.1,0,0.2,0.2l0.6,1.4c0,0.1,0,0.2,0,0.2L11,12c-0.1,0-0.1,0.1,0,0.2c0.7,1.3,1.9,1.8,2.2,1.9
	c0.1,0,0.1,0,0.2-0.1l0.5-0.7c0.1-0.1,0.2-0.1,0.3-0.1l1.3,0.6c0.1,0,0.2,0.1,0.1,0.2l-0.1,0.3c-0.1,0.3-0.3,0.6-0.6,0.8
	c-0.4,0.2-0.8,0.3-1.4,0.2C11.8,14.8,10.7,13.6,10.1,12.8z"/>
</svg>
