<?xml version="1.0" encoding="utf-8"?>
<!-- Generator: Adobe Illustrator 19.1.1, SVG Export Plug-In . SVG Version: 6.00 Build 0)  -->
<svg version="1.1" id="Layer_1" xmlns="http://www.w3.org/2000/svg" xmlns:xlink="http://www.w3.org/1999/xlink" x="0px" y="0px"
	 width="40px" height="40px" viewBox="0 0 40 40" style="enable-background:new 0 0 40 40;" xml:space="preserve">
<style type="text/css">
	.st0{fill:#2b2b2b;}
</style>
<g>
	<path class="st0" d="M28.8,18.6l-12.1-7.6c-1.1-0.7-2.6,0.1-2.6,1.4v15.1c0,1.3,1.5,2.1,2.6,1.4l12.1-7.6
		C29.8,20.8,29.8,19.2,28.8,18.6"/>
	<path class="st0" d="M20,40C9,40,0,31,0,20S9,0,20,0c11,0,20,9,20,20S31,40,20,40z M20,3C10.6,3,3,10.6,3,20c0,9.4,7.6,17,17,17
		c9.4,0,17-7.6,17-17C37,10.6,29.4,3,20,3z"/>
</g>
</svg>
