<?xml version="1.0" encoding="utf-8"?>
<!-- Generator: Adobe Illustrator 19.1.1, SVG Export Plug-In . SVG Version: 6.00 Build 0)  -->
<svg version="1.1" id="Layer_1" xmlns="http://www.w3.org/2000/svg" xmlns:xlink="http://www.w3.org/1999/xlink" x="0px" y="0px"
	 width="80px" height="80px" viewBox="0 0 80 80" style="enable-background:new 0 0 80 80;" xml:space="preserve">
<style type="text/css">
	.st0{fill:#F16B98;}
	.st1{fill:#7B491D;}
	.st2{fill:#FFFFFF;}
	.st3{fill:none;}
	.st4{fill:#F06292;}
	.st5{fill:#FFA000;}
</style>
<g id="_x34__stroke">
	<g id="Youtube_1_">
		<rect class="st3" width="80" height="80"/>
		<rect x="26" y="24.6" class="st2" width="39.8" height="29.8"/>
		<path id="Youtube" class="st4" d="M79.2,23.9c0,0-0.8-5.6-3.2-8c-3-3.2-6.5-3.2-8-3.4c-11.2-0.8-28-0.8-28-0.8h0
			c0,0-16.8,0-28,0.8c-1.6,0.2-5,0.2-8,3.4c-2.4,2.4-3.2,8-3.2,8S0,30.4,0,36.9V43c0,6.5,0.8,13,0.8,13s0.8,5.6,3.2,8
			c3,3.2,7,3.1,8.8,3.4c6.4,0.6,27.2,0.8,27.2,0.8s16.8,0,28-0.8c1.6-0.2,5-0.2,8-3.4c2.4-2.4,3.2-8,3.2-8S80,49.6,80,43v-6.1
			C80,30.4,79.2,23.9,79.2,23.9z M31.7,50.5l0-22.6l21.6,11.4L31.7,50.5z"/>
	</g>
</g>
</svg>
