<?xml version="1.0" encoding="utf-8"?>
<!-- Generator: Adobe Illustrator 19.1.1, SVG Export Plug-In . SVG Version: 6.00 Build 0)  -->
<svg version="1.1" id="Layer_1" xmlns="http://www.w3.org/2000/svg" xmlns:xlink="http://www.w3.org/1999/xlink" x="0px" y="0px"
	 width="26px" height="20px" viewBox="0 0 26 20" style="enable-background:new 0 0 26 20;" xml:space="preserve">

<g>
	<g>
		<g>
			<path class="st0-basket" d="M20.1,20c-1.2,0-2.2-0.9-2.2-2c0-1.1,1-2,2.2-2c1.2,0,2.2,0.9,2.2,2C22.2,19.1,21.3,20,20.1,20z M11.4,20
				c-1.2,0-2.2-0.9-2.2-2c0-1.1,1-2,2.2-2s2.2,0.9,2.2,2C13.6,19.1,12.6,20,11.4,20z"/>
		</g>
		<g>
			<path class="st0-basket" d="M8.8,4.1H24c0.9,0,1.7,0.7,1.6,1.5l-1.9,8.5c-0.2,0.8-0.9,1.5-1.7,1.5H10.3c-0.9,0-1.6-0.7-1.7-1.5
				C7.7,10.3,6.8,6.5,5.9,2.8l-4.2,0C0,2.8,0,0.4,1.7,0.4H7c0.5,0,0.8,0.2,1,0.6C8.2,1.6,8.5,2.9,8.8,4.1z"/>
			<path class="st0-basket" d="M21.8,16H10.3c-1,0-1.9-0.8-2.2-1.8c-0.2-1-0.4-1.9-0.7-2.9C6.8,8.6,6.2,5.9,5.5,3.2l-3.8,0c0,0,0,0,0,0
				C1,3.2,0.5,2.9,0.2,2.5c-0.3-0.5-0.3-1.2,0-1.7C0.5,0.3,1,0,1.7,0H7c0.7,0,1.2,0.3,1.4,0.9c0.1,0.3,0.2,0.8,0.4,1.4
				c0.1,0.5,0.2,1,0.4,1.5H24c0.6,0,1.3,0.3,1.7,0.7c0.3,0.4,0.4,0.8,0.3,1.3L24,14.2C23.8,15.2,22.9,16,21.8,16z M6.2,2.3l0.1,0.3
				c0.7,2.8,1.4,5.7,2,8.4C8.5,12.1,8.7,13,9,14c0.1,0.6,0.7,1.2,1.3,1.2h11.6c0.6,0,1.2-0.5,1.3-1.2l1.9-8.5
				C25.1,5.3,25,5.1,24.9,5c-0.2-0.3-0.6-0.4-1-0.4H8.5L8.4,4.2C8.2,3.6,8.1,3,7.9,2.4c-0.1-0.5-0.3-1-0.4-1.3
				C7.5,0.9,7.2,0.9,7,0.9H1.7C1.4,0.9,1.1,1,1,1.2C0.9,1.4,0.9,1.8,1,2c0.1,0.2,0.4,0.3,0.6,0.3L6.2,2.3z"/>
		</g>
	</g>
	<g>
		<g>
			<path class="st2" d="M8.8,4.1H24c0.9,0,1.7,0.7,1.6,1.5l-1.9,8.5c-0.2,0.8-0.9,1.5-1.7,1.5H10.3c-0.9,0-1.6-0.7-1.7-1.5
				C7.7,10.3,7.2,8,6.3,4.3"/>
			<path class="st0-basket" d="M21.8,16H10.3c-1,0-1.9-0.8-2.2-1.8c-0.3-1.3-0.5-2.3-0.8-3.4C6.9,8.7,6.4,6.6,5.8,4.1l1,0.1
				c0.7,2.5,1,4.3,1.5,6.4c0.2,1,0.5,2.1,0.8,3.4c0.1,0.6,0.7,1.2,1.3,1.2h11.6c0.6,0,1.2-0.5,1.3-1.2l1.9-8.5
				C25.1,5.3,25,5.1,24.9,5c-0.2-0.3-0.6-0.4-1-0.4l-17.4,0L6.2,3.9L24,3.7c0.6,0,1.3,0.3,1.7,0.7c0.3,0.4,0.4,0.8,0.3,1.3L24,14.2
				C23.8,15.2,22.9,16,21.8,16z"/>
		</g>
	</g>
</g>
</svg>
