<?xml version="1.0" encoding="utf-8"?>
<!-- Generator: Adobe Illustrator 19.1.1, SVG Export Plug-In . SVG Version: 6.00 Build 0)  -->
<svg version="1.1" id="Layer_1" xmlns="http://www.w3.org/2000/svg" xmlns:xlink="http://www.w3.org/1999/xlink" x="0px" y="0px"
	 width="20px" height="18px" viewBox="0 0 20 18" style="enable-background:new 0 0 20 18;" xml:space="preserve">
<g>
	<g>
		<path fill="transparent" class="st2-heart" d="M2.2,2.2C0.5,4,0.5,6.9,2.2,8.7l7.8,8c2.6-2.7,5.2-5.3,7.8-8c1.8-1.8,1.8-4.7,0-6.5c-1.8-1.8-4.6-1.8-6.3,0
			L10,3.7L8.6,2.2C6.8,0.4,4,0.4,2.2,2.2"/>
		<path fill="#fff" class="st0-heart" d="M10,18L1.6,9.3c-2.1-2.1-2.1-5.6,0-7.7v0c1-1,2.4-1.6,3.8-1.6c1.4,0,2.8,0.6,3.8,1.6L10,2.4l0.8-0.8
			c1-1,2.4-1.6,3.8-1.6s2.8,0.6,3.8,1.6c2.1,2.1,2.1,5.6,0,7.7L10,18z M5.4,1.8c-0.9,0-1.8,0.4-2.5,1.1v0c-1.4,1.5-1.4,3.8,0,5.3
			l7.1,7.3l7.1-7.3c1.4-1.5,1.4-3.8,0-5.3c-1.4-1.4-3.7-1.4-5,0L10,5L7.9,2.8C7.2,2.1,6.3,1.8,5.4,1.8z"/>
	</g>
</g>
</svg>
