<?xml version="1.0" encoding="utf-8"?>
<!-- Generator: Adobe Illustrator 19.1.1, SVG Export Plug-In . SVG Version: 6.00 Build 0)  -->
<svg version="1.1" id="Layer_1" xmlns="http://www.w3.org/2000/svg" xmlns:xlink="http://www.w3.org/1999/xlink" x="0px" y="0px"
	 width="43.5px" height="42.1px" viewBox="0 0 43.5 42.1" style="enable-background:new 0 0 43.5 42.1;" xml:space="preserve">
<style type="text/css">
	.st0{fill:#FFFFFF;}
	.st1{fill:#00ACC1;}
</style>
<g>
	<g>
		<path class="st0" d="M31.4,41.6H12.1c-6.4,0-11.6-5.2-11.6-11.6v-18c0-6.4,5.2-11.6,11.6-11.6h19.4C37.8,0.5,43,5.7,43,12.1v18
			C43,36.4,37.8,41.6,31.4,41.6z"/>
		<path class="st1" d="M31.4,42.1H12.1C5.4,42.1,0,36.7,0,30.1v-18C0,5.4,5.4,0,12.1,0h19.4c6.6,0,12.1,5.4,12.1,12.1v18
			C43.5,36.7,38.1,42.1,31.4,42.1z M12.1,1C6,1,1,6,1,12.1v18c0,6.1,5,11.1,11.1,11.1h19.4c6.1,0,11.1-5,11.1-11.1v-18
			C42.5,6,37.5,1,31.4,1H12.1z"/>
	</g>
	<path class="st1" d="M18.7,20.4v-7.8c0-0.3,0-0.5,0.5-0.5h6.6c1.2,0,1.8,1,2.2,2.8l0.4,1.5h1.1c0.2-4.2,0.4-6,0.4-6
		s-2.8,0.3-4.5,0.3H17l-4.5-0.1v1.2l1.5,0.3c1.1,0.2,1.3,0.4,1.4,1.4c0,0,0.1,2.9,0.1,7.6c0,4.7-0.1,7.6-0.1,7.6
		c0,0.9-0.3,1.2-1.4,1.4l-1.5,0.3v1.2l4.5-0.1h7.5c1.7,0,5.6,0.1,5.6,0.1c0.1-1,0.7-5.7,0.7-6.2h-1.1L28.8,28
		c-0.9,2-2.2,2.2-3.6,2.2h-4.3c-1.4,0-2.1-0.6-2.1-1.8v-6.6c0,0,3.1,0,4.2,0.1c0.8,0.1,1.3,0.3,1.6,1.4l0.3,1.5h1.2L26,21l0.2-3.8
		h-1.2l-0.4,1.7c-0.3,1.1-0.4,1.3-1.6,1.4C21.7,20.4,18.7,20.4,18.7,20.4L18.7,20.4L18.7,20.4L18.7,20.4L18.7,20.4z"/>
</g>
</svg>
