<?xml version="1.0" encoding="utf-8"?>
<!-- Generator: Adobe Illustrator 19.1.1, SVG Export Plug-In . SVG Version: 6.00 Build 0)  -->
<svg version="1.1" id="Layer_1" xmlns="http://www.w3.org/2000/svg" xmlns:xlink="http://www.w3.org/1999/xlink" x="0px" y="0px"
	 width="43.5px" height="42.1px" viewBox="0 0 43.5 42.1" style="enable-background:new 0 0 43.5 42.1;" xml:space="preserve">
<style type="text/css">
	.st0{fill:#FFFFFF;}
	.st1{fill:#00ACC1;}
</style>
<g>
	<g>
		<path class="st0" d="M31.4,41.6H12.1c-6.4,0-11.6-5.2-11.6-11.6v-18c0-6.4,5.2-11.6,11.6-11.6h19.4C37.8,0.5,43,5.7,43,12.1v18
			C43,36.4,37.8,41.6,31.4,41.6z"/>
		<path class="st1" d="M31.4,42.1H12.1C5.4,42.1,0,36.7,0,30.1v-18C0,5.4,5.4,0,12.1,0h19.4c6.6,0,12.1,5.4,12.1,12.1v18
			C43.5,36.7,38.1,42.1,31.4,42.1z M12.1,1C6,1,1,6,1,12.1v18c0,6.1,5,11.1,11.1,11.1h19.4c6.1,0,11.1-5,11.1-11.1v-18
			C42.5,6,37.5,1,31.4,1H12.1z"/>
	</g>
	<g id="XMLID_3_">
		<path id="XMLID_4_" class="st1" d="M23.3,30.5V21h2.8l0.4-3.2h-3.2l0-1.6c0-0.8,0.1-1.3,1.4-1.3h1.7v-3.2h-2.8
			c-3.4,0-4.5,1.6-4.5,4.2v2H17V21h2.1v9.4H23.3z"/>
	</g>
</g>
</svg>
