<?xml version="1.0" encoding="utf-8"?>
<!-- Generator: Adobe Illustrator 19.1.1, SVG Export Plug-In . SVG Version: 6.00 Build 0)  -->
<svg version="1.1" id="Layer_1" xmlns="http://www.w3.org/2000/svg" xmlns:xlink="http://www.w3.org/1999/xlink" x="0px" y="0px"
	 width="43.6px" height="42.1px" viewBox="0.1 2.8 43.6 42.1" style="enable-background:new 0.1 2.8 43.6 42.1;"
	 xml:space="preserve">
<style type="text/css">
	.st0{fill:#FFFFFF;}
	.st1{fill:#00ACC1;}
</style>
<g>
	<g>
		<path class="st0" d="M31.5,44.4H12.2c-6.4,0-11.6-5.2-11.6-11.6v-18c0-6.4,5.2-11.6,11.6-11.6h19.4c6.3,0.1,11.5,5.3,11.5,11.7v18
			C43.1,39.2,37.9,44.4,31.5,44.4z"/>
		<path class="st1" d="M31.5,44.9H12.2c-6.7,0-12.1-5.4-12.1-12v-18c0-6.7,5.4-12.1,12.1-12.1h19.4c6.6,0,12.1,5.4,12.1,12.1v18
			C43.6,39.5,38.2,44.9,31.5,44.9z M12.2,3.8c-6.1,0-11.1,5-11.1,11.1v18C1.1,39,6.1,44,12.2,44h19.4c6.1,0,11.1-5,11.1-11.1v-18
			C42.6,8.8,37.6,3.8,31.5,3.8H12.2z"/>
	</g>
</g>
<path class="st1" d="M17.3,31.8c-4.5,0-8-3.5-8-8s3.5-8,8-8c2.2,0,4,0.8,5.4,2.2l-2.2,2.1c-0.5-0.6-1.6-1.3-3.2-1.3
	c-2.7,0-4.9,2.3-4.9,5s2.2,5,4.9,5c3.2,0,4.3-2.3,4.6-3.4h-4.6v-2.7h7.6c0.1,0.5,0.1,0.8,0.1,1.4C25,28.6,21.9,31.8,17.3,31.8z
	 M34.5,24.9h-2.3v2.3h-2.3v-2.3h-2.3v-2.3h2.3v-2.3h2.3v2.3h2.3C34.5,22.6,34.5,24.9,34.5,24.9z"/>
</svg>
