<?xml version="1.0" encoding="utf-8"?>
<!-- Generator: Adobe Illustrator 21.0.0, SVG Export Plug-In . SVG Version: 6.00 Build 0)  -->
<svg version="1.1" id="Layer_1" xmlns="http://www.w3.org/2000/svg" xmlns:xlink="http://www.w3.org/1999/xlink" x="0px" y="0px"
	 width="22px" height="20px" viewBox="0 0 22 20" style="enable-background:new 0 0 22 20;" xml:space="preserve">
<style type="text/css">
	.st0{fill:#FFFFFF;}
	.st1{fill:#00ACC1;}
</style>
<path class="st0" d="M2.8,3C1.2,4.6,1.2,7.4,2.8,9l8.2,8.5L19.2,9c1.6-1.7,1.6-4.4,0-6.1c-0.7-0.8-1.7-1.2-2.8-1.2c0,0,0,0-0.1,0
	c-1.1,0-2.1,0.4-3,1.3L11,5.4L8.6,3C7.8,2.2,6.8,1.7,5.8,1.7c0,0,0,0-0.1,0C4.6,1.7,3.6,2.1,2.8,3z"/>
<g transform="translate(0,-952.36218)">
	<path class="st1" d="M11,972.4l-9.3-9.6c-2.3-2.4-2.3-6.2,0-8.6l0,0c1.2-1.2,2.7-1.8,4.3-1.8c1.6,0,3,0.7,4.1,1.8l0.9,0.9l0.9-0.9
		c1.2-1.2,2.7-1.8,4.2-1.8c0,0,0,0,0.1,0c1.6,0,3,0.7,4.1,1.8c2.3,2.4,2.3,6.2,0,8.6L11,972.4z M3.1,955.6c-1.5,1.6-1.5,4.2,0,5.8
		l7.9,8.1l7.9-8.2c1.5-1.6,1.5-4.2,0-5.8c-0.7-0.8-1.7-1.2-2.7-1.2c0,0,0,0,0,0c-1,0-2,0.4-2.8,1.2l-2.3,2.3l-2.3-2.3
		C8,954.8,7,954.4,6,954.4c0,0,0,0,0,0C4.9,954.4,3.9,954.8,3.1,955.6z"/>
</g>
</svg>
