<?xml version="1.0" encoding="utf-8"?>
<!-- Generator: Adobe Illustrator 19.1.1, SVG Export Plug-In . SVG Version: 6.00 Build 0)  -->
<svg version="1.1" id="Layer_1" xmlns="http://www.w3.org/2000/svg" xmlns:xlink="http://www.w3.org/1999/xlink" x="0px" y="0px"
	 width="43.5px" height="42.1px" viewBox="0 0 43.5 42.1" style="enable-background:new 0 0 43.5 42.1;" xml:space="preserve">
<style type="text/css">
	.st0{fill:#FFFFFF;}
	.st1{fill:#00ACC1;}
</style>
<g>
	<g>
		<path class="st0" d="M31.4,41.6H12.1c-6.4,0-11.6-5.2-11.6-11.6v-18c0-6.4,5.2-11.6,11.6-11.6h19.4C37.8,0.5,43,5.7,43,12.1v18
			C43,36.4,37.8,41.6,31.4,41.6z"/>
		<path class="st1" d="M31.4,42.1H12.1C5.4,42.1,0,36.7,0,30.1v-18C0,5.4,5.4,0,12.1,0h19.4c6.6,0,12.1,5.4,12.1,12.1v18
			C43.5,36.7,38.1,42.1,31.4,42.1z M12.1,1C6,1,1,6,1,12.1v18c0,6.1,5,11.1,11.1,11.1h19.4c6.1,0,11.1-5,11.1-11.1v-18
			C42.5,6,37.5,1,31.4,1H12.1z"/>
	</g>
	<g>
		<path class="st1" d="M21.7,18.4c-1.4,0-2.6,1.2-2.6,2.6c0,1.4,1.2,2.6,2.6,2.6c1.4,0,2.6-1.2,2.6-2.6
			C24.3,19.6,23.1,18.4,21.7,18.4z"/>
		<path class="st1" d="M30.3,12.6c-1.1-1.1-2.6-1.7-4.3-1.7h-8.4c-3.6,0-5.9,2.4-5.9,5.9v8.4c0,1.8,0.6,3.3,1.7,4.4
			c1.1,1.1,2.6,1.6,4.3,1.6h8.4c1.8,0,3.2-0.6,4.3-1.6c1.1-1.1,1.7-2.6,1.7-4.3v-8.4C31.9,15.1,31.3,13.6,30.3,12.6z M21.7,26.3
			c-2.9,0-5.2-2.3-5.2-5.2c0-2.9,2.4-5.2,5.2-5.2c2.9,0,5.2,2.4,5.2,5.2S24.6,26.3,21.7,26.3z M27.2,16.8c-0.7,0-1.2-0.5-1.2-1.2
			c0-0.7,0.5-1.2,1.2-1.2s1.2,0.5,1.2,1.2C28.4,16.3,27.8,16.8,27.2,16.8z"/>
	</g>
</g>
</svg>
