<?xml version="1.0" encoding="utf-8"?>
<!-- Generator: Adobe Illustrator 19.1.1, SVG Export Plug-In . SVG Version: 6.00 Build 0)  -->
<svg version="1.1" id="Layer_1" xmlns="http://www.w3.org/2000/svg" xmlns:xlink="http://www.w3.org/1999/xlink" x="0px" y="0px"
	 width="43.6px" height="42.1px" viewBox="0.8 2.2 43.6 42.1" style="enable-background:new 0.8 2.2 43.6 42.1;"
	 xml:space="preserve">
<style type="text/css">
	.st0{fill:#FFFFFF;}
	.st1{fill:#00ACC1;}
</style>
<g>
	<g>
		<path class="st0" d="M32.2,43.8H12.9c-6.4,0-11.6-5.2-11.6-11.6v-18c0-6.4,5.2-11.6,11.6-11.6h19.4c6.3,0.1,11.5,5.3,11.5,11.7v18
			C43.8,38.6,38.6,43.8,32.2,43.8z"/>
		<path class="st1" d="M32.2,44.3H12.9c-6.7,0-12.1-5.4-12.1-12v-18c0-6.7,5.4-12.1,12.1-12.1h19.4c6.6,0,12.1,5.4,12.1,12.1v18
			C44.3,38.9,38.9,44.3,32.2,44.3z M12.9,3.2c-6.1,0-11.1,5-11.1,11.1v18c0,6.1,5,11.1,11.1,11.1h19.4c6.1,0,11.1-5,11.1-11.1v-18
			C43.3,8.2,38.3,3.2,32.2,3.2H12.9z"/>
	</g>
</g>
<path class="st1" d="M30.4,19.3c0,0.2,0,0.3,0,0.5c0,5.3-4,11.3-11.3,11.3c-2.2,0-4.3-0.7-6.1-1.8c0.3,0,0.6,0.1,0.9,0.1
	c1.9,0,3.6-0.6,4.9-1.7c-1.7,0-3.2-1.2-3.7-2.8c0.2,0,0.5,0.1,0.7,0.1c0.4,0,0.7,0,1-0.1c-1.8-0.4-3.2-2-3.2-3.9v-0.1
	c0.5,0.3,1.1,0.5,1.8,0.5c-1.1-0.7-1.8-1.9-1.8-3.3c0-0.7,0.2-1.4,0.5-2c2,2.4,4.9,4,8.2,4.2c-0.1-0.3-0.1-0.6-0.1-0.9
	c0-2.2,1.8-4,4-4c1.1,0,2.2,0.5,2.9,1.3c0.9-0.2,1.8-0.5,2.5-1c-0.3,0.9-0.9,1.7-1.7,2.2c0.8-0.1,1.6-0.3,2.3-0.6
	C31.9,18.1,31.2,18.8,30.4,19.3z"/>
</svg>
