<?xml version="1.0" encoding="utf-8"?>
<!-- Generator: Adobe Illustrator 19.1.1, SVG Export Plug-In . SVG Version: 6.00 Build 0)  -->
<svg version="1.1" id="Layer_1" xmlns="http://www.w3.org/2000/svg" xmlns:xlink="http://www.w3.org/1999/xlink" x="0px" y="0px"
	 width="43.5px" height="42.1px" viewBox="0 0 43.5 42.1" style="enable-background:new 0 0 43.5 42.1;" xml:space="preserve">
<style type="text/css">
	.st0{fill:#FFFFFF;}
	.st1{fill:#00ACC1;}
</style>
<g>
	<g>
		<path class="st0" d="M31.4,41.6H12.1c-6.4,0-11.6-5.2-11.6-11.6v-18c0-6.4,5.2-11.6,11.6-11.6h19.4C37.8,0.5,43,5.7,43,12.1v18
			C43,36.4,37.8,41.6,31.4,41.6z"/>
		<path class="st1" d="M31.4,42.1H12.1C5.4,42.1,0,36.7,0,30.1v-18C0,5.4,5.4,0,12.1,0h19.4c6.6,0,12.1,5.4,12.1,12.1v18
			C43.5,36.7,38.1,42.1,31.4,42.1z M12.1,1C6,1,1,6,1,12.1v18c0,6.1,5,11.1,11.1,11.1h19.4c6.1,0,11.1-5,11.1-11.1v-18
			C42.5,6,37.5,1,31.4,1H12.1z"/>
	</g>
	<g>
		<path class="st1" d="M13.2,26.4c-0.3,0-0.6-0.2-0.7-0.5c-0.1-0.2-0.2-0.6-0.2-1.1c-0.1-1.4,0-3.5,0.4-4.1c0.2-0.3,0.5-0.5,0.8-0.5
			c0.2,0,0.4,0.1,4.4,1.8l1.2,0.5c0.4,0.2,0.7,0.6,0.7,1.1c0,0.5-0.3,0.9-0.7,1c0,0-1.7,0.5-1.7,0.5C13.6,26.4,13.4,26.4,13.2,26.4z
			"/>
		<path class="st1" d="M22,28.9c0,3.9,0,4-0.1,4.2c-0.1,0.3-0.4,0.5-0.7,0.5c-1,0.2-4.1-1-4.7-1.8c-0.1-0.2-0.2-0.3-0.2-0.5
			c0-0.1,0-0.2,0-0.4c0.1-0.2,0.2-0.3,2.9-3.6c0,0,0.8-1,0.8-1c0.3-0.3,0.8-0.5,1.2-0.3c0.4,0.2,0.7,0.6,0.7,1
			C22,27.1,22,28.9,22,28.9z"/>
		<path class="st1" d="M21.1,20.6c-0.2,0.1-0.8,0.3-1.6-1c0,0-5.2-8.2-5.3-8.5c-0.1-0.3,0-0.6,0.3-0.9c0.8-0.8,4.9-2,6-1.7
			c0.4,0.1,0.6,0.3,0.7,0.6c0.1,0.4,0.6,8,0.6,9.7C21.9,20.3,21.3,20.5,21.1,20.6z"/>
		<path class="st1" d="M23.9,21.1c0,0,1-1.4,1-1.4c2.2-3.1,2.4-3.3,2.5-3.4c0.3-0.2,0.6-0.2,0.9,0c0.9,0.4,2.7,3.1,2.8,4.2
			c0,0,0,0,0,0c0,0.4-0.1,0.6-0.4,0.8c-0.2,0.1-0.3,0.2-4.5,1.2c-0.7,0.2-1,0.3-1.2,0.3c0,0,0,0,0,0c-0.4,0.1-0.9-0.1-1.1-0.5
			C23.7,21.9,23.7,21.4,23.9,21.1z"/>
		<path class="st1" d="M31.3,27.7c-0.1,1-2.2,3.6-3.1,4c-0.3,0.1-0.6,0.1-0.9-0.1c-0.2-0.1-0.3-0.4-2.5-4l-0.6-1.1
			c-0.2-0.4-0.2-0.9,0.1-1.3c0.3-0.4,0.7-0.5,1.1-0.4c0,0,1.6,0.6,1.6,0.6c3.7,1.2,3.8,1.3,3.9,1.4C31.2,27.1,31.3,27.4,31.3,27.7z"
			/>
	</g>
</g>
</svg>
